<svg width="10" height="8" viewBox="0 0 10 8" fill="none" xmlns="http://www.w3.org/2000/svg">
<path d="M8.85714 3.3L2.68571 3.3L4.17071 1.683C4.29736 1.5451 4.35714 1.3806 4.35714 1.2C4.35714 0.8556 4.09582 0.5 3.71429 0.5C3.54361 0.5 3.39479 0.56755 3.27071 0.703L0.712786 3.4883C0.607357 3.6031 0.5 3.74485 0.5 4C0.5 4.25515 0.589679 4.378 0.707643 4.50645L3.27071 7.297C3.39479 7.43245 3.54361 7.5 3.71429 7.5C4.09614 7.5 4.35714 7.1444 4.35714 6.8C4.35714 6.6194 4.29736 6.4549 4.17071 6.317L2.68571 4.7L8.85714 4.7C9.212 4.7 9.5 4.3864 9.5 4C9.5 3.6136 9.212 3.3 8.85714 3.3Z" fill="#003C7E" />
</svg>
