<svg width="24" height="24" viewBox="0 0 24 24" fill="none" xmlns="http://www.w3.org/2000/svg">
<path d="M7.60508 9.20384C7.16538 8.86966 6.53802 8.95521 6.20384 9.39492C5.86966 9.83462 5.95521 10.462 6.39492 10.7962L7.60508 9.20384ZM12.2632 14L11.6581 14.7962L12.2961 15.281L12.9083 14.764L12.2632 14ZM17.6452 10.764C18.0671 10.4077 18.1204 9.77678 17.764 9.35482C17.4077 8.93286 16.7768 8.87965 16.3548 9.23597L17.6452 10.764ZM6.39492 10.7962C6.39893 10.7992 6.40295 10.8023 6.40697 10.8053C6.411 10.8084 6.41502 10.8114 6.41906 10.8145C6.42309 10.8176 6.42712 10.8206 6.43116 10.8237C6.4352 10.8268 6.43925 10.8299 6.4433 10.8329C6.44735 10.836 6.4514 10.8391 6.45546 10.8422C6.45952 10.8453 6.46358 10.8483 6.46764 10.8514C6.47171 10.8545 6.47578 10.8576 6.47985 10.8607C6.48393 10.8638 6.48801 10.8669 6.49209 10.87C6.49617 10.8731 6.50026 10.8762 6.50435 10.8793C6.50844 10.8824 6.51254 10.8856 6.51664 10.8887C6.52074 10.8918 6.52484 10.8949 6.52895 10.898C6.53305 10.9011 6.53716 10.9043 6.54128 10.9074C6.54539 10.9105 6.54951 10.9137 6.55364 10.9168C6.55776 10.9199 6.56189 10.9231 6.56602 10.9262C6.57015 10.9293 6.57428 10.9325 6.57842 10.9356C6.58256 10.9388 6.58671 10.9419 6.59085 10.9451C6.595 10.9482 6.59915 10.9514 6.6033 10.9545C6.60746 10.9577 6.61162 10.9609 6.61578 10.964C6.61994 10.9672 6.62411 10.9703 6.62828 10.9735C6.63245 10.9767 6.63662 10.9799 6.6408 10.983C6.64498 10.9862 6.64916 10.9894 6.65334 10.9926C6.65753 10.9957 6.66171 10.9989 6.66591 11.0021C6.6701 11.0053 6.67429 11.0085 6.67849 11.0117C6.68269 11.0149 6.6869 11.0181 6.6911 11.0213C6.69531 11.0245 6.69952 11.0277 6.70373 11.0309C6.70795 11.0341 6.71217 11.0373 6.71639 11.0405C6.76932 11.0807 6.68879 11.0195 6.74176 11.0598C6.74599 11.063 6.75023 11.0662 6.75447 11.0694C6.75871 11.0726 6.76296 11.0759 6.76721 11.0791C6.77146 11.0823 6.77571 11.0856 6.77997 11.0888C6.78422 11.092 6.78848 11.0953 6.79274 11.0985C6.87719 11.1627 6.81081 11.1122 6.89567 11.1767C6.91739 11.1932 6.89985 11.1799 6.92159 11.1964C6.92592 11.1997 6.93025 11.203 6.93458 11.2063C6.93891 11.2096 6.94325 11.2129 6.94759 11.2162C6.95193 11.2195 6.95627 11.2228 6.96061 11.2261C6.96496 11.2294 6.9693 11.2327 6.97365 11.236C6.978 11.2393 6.98236 11.2426 6.98671 11.2459C6.99107 11.2492 6.99543 11.2525 6.99979 11.2559C7.00415 11.2592 7.00851 11.2625 7.01288 11.2658C7.01725 11.2691 7.02162 11.2725 7.02599 11.2758C7.03036 11.2791 7.03474 11.2824 7.03912 11.2858C7.0435 11.2891 7.04788 11.2924 7.05226 11.2957C7.08892 11.3236 7.06825 11.3079 7.10499 11.3358C7.15974 11.3774 7.10315 11.3344 7.15797 11.3761C7.17287 11.3874 7.16964 11.385 7.18455 11.3963C7.18899 11.3997 7.19343 11.403 7.19786 11.4064C7.2023 11.4098 7.20675 11.4132 7.21119 11.4165C7.21563 11.4199 7.22008 11.4233 7.22453 11.4267C7.22898 11.43 7.23343 11.4334 7.23788 11.4368C7.24234 11.4402 7.24679 11.4436 7.25125 11.447C7.25571 11.4504 7.26017 11.4538 7.26463 11.4571C7.26909 11.4605 7.27355 11.4639 7.27802 11.4673C7.28249 11.4707 7.28696 11.4741 7.29143 11.4775C7.2959 11.4809 7.30037 11.4843 7.30484 11.4877C7.30932 11.4911 7.3138 11.4945 7.31828 11.4979C7.32275 11.5013 7.32724 11.5047 7.33172 11.5081C7.3362 11.5115 7.34069 11.5149 7.34517 11.5184C7.34966 11.5218 7.35415 11.5252 7.35864 11.5286C7.36313 11.532 7.36763 11.5354 7.37212 11.5388C7.37662 11.5423 7.38111 11.5457 7.38561 11.5491C7.39011 11.5525 7.39461 11.5559 7.39911 11.5594C7.40362 11.5628 7.40812 11.5662 7.41263 11.5696C7.41713 11.573 7.42164 11.5765 7.42615 11.5799C7.51791 11.6496 7.55132 11.675 7.64387 11.7454C7.65649 11.755 7.74076 11.819 7.75352 11.8287C7.80873 11.8707 7.72578 11.8076 7.781 11.8496C7.80064 11.8645 7.78885 11.8555 7.8085 11.8705C7.84223 11.8961 7.80228 11.8658 7.83602 11.8914C7.8406 11.8949 7.84519 11.8984 7.84978 11.9019C7.85437 11.9053 7.85896 11.9088 7.86356 11.9123C7.8848 11.9285 8.0629 12.0638 8.0844 12.0802C8.14864 12.129 8.07546 12.0734 8.1397 12.1222C8.17401 12.1483 8.13305 12.1171 8.16736 12.1432C8.1847 12.1564 8.17767 12.1511 8.19501 12.1642C8.21025 12.1758 8.20743 12.1737 8.22267 12.1853C8.24025 12.1986 8.23274 12.1929 8.25032 12.2063C8.28086 12.2295 8.24743 12.2041 8.27797 12.2273C8.28258 12.2308 8.28719 12.2343 8.29179 12.2378C8.2964 12.2413 8.30101 12.2448 8.30562 12.2483C8.31022 12.2518 8.31483 12.2553 8.31944 12.2588C8.32404 12.2623 8.32865 12.2658 8.33325 12.2693C8.33786 12.2728 8.34246 12.2763 8.34707 12.2798C8.35167 12.2833 8.35628 12.2868 8.36088 12.2903C8.37888 12.304 8.39812 12.3186 8.41611 12.3323C8.46073 12.3662 8.42668 12.3403 8.47128 12.3742C8.47278 12.3753 8.52493 12.415 8.52639 12.4161C8.5431 12.4288 8.72978 12.5707 8.74594 12.5829C8.76399 12.5967 8.78254 12.6108 8.80054 12.6244C8.81346 12.6343 8.84214 12.6561 8.85501 12.6658C8.85585 12.6665 8.88135 12.6859 8.88218 12.6865C8.88671 12.6899 8.89123 12.6934 8.89575 12.6968C8.90028 12.7002 8.9048 12.7037 8.90932 12.7071C8.91383 12.7105 8.91835 12.714 8.92287 12.7174C8.92738 12.7208 8.9319 12.7243 8.93641 12.7277C8.94092 12.7311 8.94543 12.7346 8.94994 12.738C8.95445 12.7414 8.95896 12.7448 8.96346 12.7483C8.96797 12.7517 8.97247 12.7551 8.97697 12.7585C8.98147 12.7619 8.98597 12.7654 8.99047 12.7688C8.99497 12.7722 8.99946 12.7756 9.00395 12.779C9.00845 12.7824 9.01294 12.7859 9.01743 12.7893C9.06442 12.825 9.02428 12.7945 9.07121 12.8301C9.09366 12.8472 9.1024 12.8539 9.12479 12.8709C9.12835 12.8736 9.14795 12.8885 9.1515 12.8912C9.18688 12.9181 9.14278 12.8845 9.17815 12.9114C9.24543 12.9626 9.21722 12.9411 9.28419 12.992C9.31978 13.0191 9.30132 13.005 9.33683 13.032C9.40409 13.0831 9.32204 13.0208 9.38921 13.0718C9.39121 13.0733 9.49152 13.1496 9.49314 13.1508C9.56018 13.2018 9.47771 13.1391 9.54465 13.19C9.61501 13.2434 9.5256 13.1755 9.59585 13.2289C9.62833 13.2536 9.58889 13.2236 9.62133 13.2482C9.62557 13.2515 9.62981 13.2547 9.63404 13.2579C9.63827 13.2611 9.6425 13.2643 9.64673 13.2675C9.653 13.2723 9.6658 13.282 9.67204 13.2868C9.69407 13.3035 9.67526 13.2892 9.69726 13.3059C9.71237 13.3174 9.70732 13.3136 9.7224 13.325C9.73158 13.332 9.7383 13.3371 9.74745 13.3441C9.75161 13.3473 9.75578 13.3504 9.75994 13.3536C9.7641 13.3567 9.76825 13.3599 9.7724 13.3631C9.77656 13.3662 9.7807 13.3694 9.78485 13.3725C9.78899 13.3757 9.79313 13.3788 9.79727 13.3819C9.8294 13.4064 9.86415 13.4328 9.89577 13.4568C9.96231 13.5074 9.87802 13.4433 9.94442 13.4938C9.94846 13.4969 9.95249 13.4999 9.95652 13.503C9.96055 13.506 9.96457 13.5091 9.96859 13.5122C9.96943 13.5128 9.99186 13.5298 9.99266 13.5304C9.99666 13.5335 10.0007 13.5365 10.0047 13.5396C10.0086 13.5426 10.0126 13.5456 10.0166 13.5487C10.0859 13.6013 9.97121 13.5141 10.0405 13.5668C10.0444 13.5698 10.0484 13.5728 10.0524 13.5758C10.0563 13.5788 10.0603 13.5818 10.0642 13.5848C10.0823 13.5986 10.0698 13.5891 10.0878 13.6028C10.13 13.6348 10.0693 13.5887 10.1114 13.6207C10.1192 13.6266 10.127 13.6325 10.1348 13.6385C10.1387 13.6414 10.1426 13.6444 10.1464 13.6473C10.1503 13.6503 10.1542 13.6532 10.1581 13.6562C10.1907 13.681 10.1486 13.649 10.1812 13.6738C10.1851 13.6767 10.1889 13.6796 10.1928 13.6825C10.1966 13.6855 10.2005 13.6884 10.2043 13.6913C10.2081 13.6942 10.2119 13.6971 10.2158 13.7C10.2196 13.7029 10.2234 13.7058 10.2272 13.7087C10.233 13.7131 10.2671 13.739 10.2727 13.7433C10.2765 13.7462 10.2802 13.749 10.284 13.7519C10.2878 13.7547 10.2915 13.7576 10.2953 13.7604C10.299 13.7633 10.3028 13.7661 10.3065 13.769C10.3102 13.7718 10.314 13.7747 10.3177 13.7775C10.3214 13.7803 10.3252 13.7831 10.3289 13.786C10.3326 13.7888 10.3363 13.7916 10.34 13.7944C10.3489 13.8012 10.3533 13.8046 10.3622 13.8113C10.3684 13.816 10.378 13.8233 10.3842 13.828C10.3879 13.8308 10.3916 13.8336 10.3952 13.8364C10.3989 13.8392 10.4025 13.8419 10.4061 13.8447C10.4158 13.852 10.4183 13.8539 10.4279 13.8612C10.4407 13.871 10.4368 13.868 10.4496 13.8777C10.4532 13.8804 10.4567 13.8832 10.4603 13.8859C10.4639 13.8886 10.4675 13.8913 10.4711 13.894C10.4864 13.9057 10.4772 13.8987 10.4924 13.9103C10.496 13.913 10.4995 13.9157 10.5031 13.9183C10.5066 13.921 10.5101 13.9237 10.5136 13.9264C10.526 13.9358 10.5224 13.933 10.5347 13.9424C10.5382 13.9451 10.5417 13.9477 10.5452 13.9504C10.5487 13.953 10.5522 13.9557 10.5557 13.9583C10.5591 13.961 10.5626 13.9636 10.5661 13.9662C10.5695 13.9689 10.573 13.9715 10.5765 13.9741C10.5876 13.9826 10.586 13.9814 10.5971 13.9898C10.6005 13.9924 10.6039 13.995 10.6074 13.9976C10.6108 14.0002 10.6142 14.0028 10.6176 14.0054C10.6766 14.0502 10.6399 14.0223 10.6981 14.0665C10.7854 14.1329 10.7675 14.1193 10.8514 14.1831C10.8602 14.1898 10.861 14.1904 10.8698 14.1971C10.8728 14.1994 10.8759 14.2017 10.8789 14.204C10.882 14.2063 10.885 14.2086 10.888 14.2109C10.9382 14.249 10.8741 14.2004 10.924 14.2383C10.9424 14.2523 10.9411 14.2513 10.9593 14.2651C10.9708 14.2738 10.9653 14.2696 10.9767 14.2783C11.0076 14.3018 10.9629 14.2679 10.9939 14.2914C10.9967 14.2935 10.9996 14.2957 11.0024 14.2978C11.0052 14.3 11.0081 14.3021 11.0109 14.3043C11.0137 14.3064 11.0165 14.3086 11.0193 14.3107C11.0221 14.3128 11.0249 14.315 11.0277 14.3171C11.044 14.3295 11.0281 14.3173 11.0443 14.3297C11.0462 14.3311 11.059 14.3409 11.0608 14.3422C11.1041 14.3751 11.0501 14.3341 11.0932 14.3668C11.0959 14.3689 11.1064 14.3769 11.109 14.3789C11.1215 14.3884 11.1123 14.3814 11.1247 14.3908C11.1902 14.4406 11.3007 14.5245 11.3485 14.5609C11.3827 14.5868 11.3388 14.5535 11.3727 14.5792C11.4095 14.6073 11.3593 14.5691 11.3959 14.5969C11.4203 14.6155 11.4166 14.6126 11.4398 14.6302C11.4415 14.6316 11.4433 14.6329 11.445 14.6342C11.4467 14.6355 11.4484 14.6368 11.4501 14.6381C11.4519 14.6394 11.4536 14.6407 11.4553 14.642C11.4569 14.6433 11.4586 14.6446 11.4603 14.6459C11.462 14.6471 11.4636 14.6484 11.4653 14.6496C11.4669 14.6509 11.4686 14.6521 11.4702 14.6534C11.4735 14.6559 11.4767 14.6583 11.4799 14.6607C11.4975 14.6741 11.4813 14.6618 11.4985 14.6749C11.5153 14.6876 11.4908 14.6691 11.5075 14.6817C11.509 14.6828 11.5104 14.684 11.5119 14.6851C11.5134 14.6862 11.5148 14.6873 11.5162 14.6884C11.5583 14.7203 11.5079 14.6821 11.5487 14.713C11.5721 14.7308 11.5403 14.7066 11.5634 14.7242C11.5646 14.7251 11.5657 14.726 11.5669 14.7269C11.5681 14.7278 11.5692 14.7286 11.5704 14.7295C11.591 14.7452 11.5565 14.719 11.5771 14.7346C11.6307 14.7754 11.5735 14.7319 11.6215 14.7684C11.6412 14.7833 11.6192 14.7666 11.6374 14.7804C11.6379 14.7809 11.6385 14.7813 11.6391 14.7817C11.6396 14.7821 11.6401 14.7825 11.6407 14.7829C11.6436 14.7851 11.6408 14.7831 11.6437 14.7852C11.6454 14.7865 11.6475 14.7881 11.6488 14.7891C11.6679 14.8037 11.6341 14.7779 11.6528 14.7922C11.6544 14.7934 11.6529 14.7923 11.6544 14.7934C11.6545 14.7935 11.6557 14.7944 11.6557 14.7944C11.6591 14.797 11.6545 14.7934 11.6575 14.7957C11.6576 14.7958 11.6577 14.7959 11.6577 14.7959C11.6578 14.796 11.6579 14.796 11.6579 14.7961C11.658 14.7961 11.658 14.7961 11.658 14.7961C11.6581 14.7962 11.6581 14.7962 12.2632 14C12.8682 13.2038 12.8682 13.2038 12.8682 13.2038C12.8682 13.2038 12.8681 13.2038 12.8681 13.2037C12.8681 13.2037 12.8678 13.2035 12.8677 13.2034C12.8661 13.2022 12.8678 13.2035 12.8659 13.2021C12.858 13.196 12.8684 13.204 12.859 13.1968C12.8576 13.1958 12.8555 13.1942 12.8538 13.1929C12.8534 13.1926 12.8483 13.1887 12.8475 13.1881C12.8447 13.186 12.8433 13.1849 12.8402 13.1825C12.831 13.1756 12.8412 13.1833 12.8317 13.1761C12.828 13.1733 12.7965 13.1493 12.7873 13.1423C12.7571 13.1194 12.7619 13.123 12.7264 13.096C12.7002 13.0761 12.7176 13.0893 12.6901 13.0684C12.6742 13.0564 12.667 13.0509 12.6499 13.0379C12.6381 13.0289 12.6513 13.0389 12.6393 13.0299C12.634 13.0258 12.6338 13.0257 12.6285 13.0216C12.6249 13.0189 12.621 13.016 12.6174 13.0132C12.6161 13.0122 12.6075 13.0057 12.6061 13.0046C12.6054 13.0041 12.5838 12.9877 12.5828 12.9869C12.5208 12.9398 12.621 13.0159 12.5587 12.9686C12.5448 12.958 12.5227 12.9412 12.5077 12.9298C12.4426 12.8804 12.5464 12.9592 12.481 12.9095C12.4535 12.8887 12.4811 12.9096 12.4534 12.8886C12.4378 12.8767 12.4124 12.8574 12.3958 12.8447C12.3845 12.8362 12.3922 12.842 12.3808 12.8334C12.3259 12.7917 12.4207 12.8637 12.3657 12.8219C12.3632 12.82 12.3606 12.8181 12.3581 12.8161C12.3555 12.8142 12.353 12.8122 12.3504 12.8103C12.3274 12.7928 12.358 12.816 12.3349 12.7985C12.3315 12.7959 12.3227 12.7892 12.3192 12.7866C12.3166 12.7846 12.3139 12.7826 12.3113 12.7806C12.3086 12.7785 12.306 12.7765 12.3033 12.7745C12.2711 12.75 12.3195 12.7868 12.2872 12.7623C12.2845 12.7602 12.2818 12.7582 12.2791 12.7561C12.2764 12.7541 12.2737 12.752 12.271 12.7499C12.2671 12.747 12.2584 12.7404 12.2545 12.7374C12.2518 12.7353 12.249 12.7332 12.2462 12.7311C12.2434 12.729 12.2407 12.7269 12.2379 12.7248C12.173 12.6755 12.2859 12.7613 12.221 12.712C12.2182 12.7098 12.2154 12.7077 12.2126 12.7055C12.2097 12.7034 12.2069 12.7012 12.204 12.699C12.2011 12.6968 12.1898 12.6883 12.1868 12.686C12.184 12.6838 12.1811 12.6816 12.1782 12.6794C12.1753 12.6772 12.1724 12.675 12.1695 12.6728C12.1239 12.6381 12.1975 12.6941 12.1519 12.6594C12.149 12.6572 12.146 12.6549 12.1431 12.6527C12.1401 12.6505 12.1371 12.6482 12.1342 12.6459C12.1157 12.6319 12.1169 12.6328 12.0982 12.6186C12.0603 12.5898 12.0996 12.6197 12.0615 12.5907C12.0054 12.5481 12.0806 12.6052 12.0242 12.5624C12.0179 12.5576 12.0116 12.5528 12.0053 12.548C11.9616 12.5148 12.0299 12.5667 11.9862 12.5335C11.9836 12.5315 11.9117 12.4768 11.9082 12.4742C11.8746 12.4487 11.922 12.4847 11.8883 12.4591C11.8671 12.443 11.8896 12.4601 11.8683 12.4439C11.8478 12.4283 11.8687 12.4442 11.8481 12.4285C11.8447 12.426 11.8413 12.4234 11.8379 12.4208C11.8346 12.4182 11.8312 12.4157 11.8278 12.4131C11.8244 12.4105 11.8209 12.4079 11.8175 12.4053C11.8141 12.4027 11.8107 12.4001 11.8073 12.3975C11.7932 12.3868 11.8007 12.3925 11.7866 12.3818C11.7836 12.3795 11.7689 12.3683 11.7658 12.366C11.7624 12.3634 11.7589 12.3607 11.7554 12.3581C11.7519 12.3554 11.7484 12.3528 11.7449 12.3501C11.7407 12.3469 11.728 12.3373 11.7238 12.3341C11.7094 12.3231 11.7171 12.3289 11.7026 12.3179C11.697 12.3137 11.6869 12.306 11.6812 12.3017C11.6777 12.299 11.6741 12.2963 11.6705 12.2936C11.6669 12.2908 11.6633 12.2881 11.6597 12.2854C11.5902 12.2325 11.6426 12.2723 11.5724 12.219C11.552 12.2035 11.5706 12.2176 11.5502 12.2021C11.5372 12.1922 11.5409 12.1951 11.5279 12.1852C11.5241 12.1823 11.5204 12.1795 11.5167 12.1766C11.5129 12.1738 11.5092 12.171 11.5054 12.1681C11.5017 12.1653 11.4979 12.1624 11.4942 12.1595C11.4904 12.1567 11.4867 12.1538 11.4829 12.151C11.4581 12.1321 11.4168 12.1008 11.3914 12.0814C11.3462 12.0471 11.3903 12.0806 11.3449 12.0461C11.2915 12.0055 11.375 12.069 11.3215 12.0283C11.3029 12.0142 11.3167 12.0246 11.298 12.0105C11.2811 11.9976 11.2913 12.0054 11.2744 11.9925C11.2722 11.9908 11.2529 11.9762 11.2506 11.9745C11.1743 11.9165 11.2793 11.9962 11.2028 11.9381C11.1923 11.9302 11.1652 11.9095 11.1546 11.9015C11.1434 11.8929 11.1173 11.8731 11.1059 11.8645C11.0286 11.8057 11.0853 11.8488 11.0074 11.7896C10.9874 11.7744 10.9778 11.7671 10.9576 11.7518C10.9454 11.7425 10.9448 11.742 10.9326 11.7327C10.9284 11.7295 10.9242 11.7264 10.92 11.7232C10.9158 11.72 10.9116 11.7168 10.9074 11.7136C10.8614 11.6786 10.9283 11.7295 10.8822 11.6944C10.878 11.6912 10.8738 11.688 10.8696 11.6848C10.8653 11.6816 10.8611 11.6784 10.8569 11.6752C10.8429 11.6646 10.8455 11.6665 10.8315 11.6559C10.7645 11.605 10.873 11.6875 10.806 11.6365C10.7881 11.6229 10.7984 11.6308 10.7805 11.6171C10.7569 11.5992 10.7784 11.6156 10.7548 11.5976C10.7505 11.5944 10.7463 11.5911 10.742 11.5879C10.7377 11.5846 10.7334 11.5814 10.7291 11.5781C10.7248 11.5748 10.7205 11.5716 10.7162 11.5683C10.7119 11.565 10.7076 11.5618 10.7033 11.5585C10.619 11.4944 10.6841 11.5439 10.5994 11.4795C10.595 11.4762 10.5907 11.4729 10.5863 11.4696C10.582 11.4663 10.5776 11.4629 10.5732 11.4596C10.5689 11.4563 10.5645 11.453 10.5601 11.4497C10.5557 11.4463 10.5514 11.443 10.547 11.4397C10.5437 11.4372 10.524 11.4222 10.5207 11.4197C10.5179 11.4176 10.4972 11.4018 10.4944 11.3997C10.4832 11.3912 10.3998 11.3278 10.3883 11.3191C10.3782 11.3114 10.3718 11.3066 10.3617 11.2988C10.3492 11.2893 10.3475 11.2881 10.335 11.2785C10.3305 11.2752 10.326 11.2718 10.3216 11.2684C10.3171 11.265 10.3127 11.2616 10.3082 11.2582C10.3072 11.2575 10.2824 11.2386 10.2814 11.2378C10.2507 11.2145 10.2584 11.2203 10.2276 11.1969C10.1845 11.1642 10.2168 11.1888 10.1736 11.1559C10.1691 11.1525 10.1646 11.1491 10.1601 11.1457C10.1556 11.1422 10.1511 11.1388 10.1466 11.1354C10.1421 11.1319 10.1375 11.1285 10.133 11.1251C10.1285 11.1216 10.124 11.1182 10.1195 11.1148C10.0785 11.0836 10.1062 11.1047 10.0652 11.0735C10.0223 11.0409 10.0536 11.0647 10.0107 11.0321C9.97196 11.0027 10.0222 11.0408 9.98343 11.0114C9.97888 11.0079 9.97432 11.0045 9.96977 11.001C9.96522 10.9975 9.96066 10.9941 9.95611 10.9906C9.88107 10.9336 9.81215 10.8812 9.73656 10.8238C9.703 10.7983 9.65992 10.7655 9.62628 10.7399C9.57331 10.6997 9.62403 10.7382 9.57105 10.698C9.56644 10.6945 9.56184 10.691 9.55724 10.6875C9.55263 10.684 9.54803 10.6805 9.54342 10.677C9.53881 10.6735 9.53421 10.67 9.5296 10.6665C9.525 10.663 9.52039 10.6595 9.51578 10.656C9.50689 10.6492 9.49703 10.6417 9.48814 10.635C9.45235 10.6078 9.49628 10.6411 9.46049 10.6139C9.45588 10.6104 9.45127 10.6069 9.44666 10.6034C9.44205 10.5999 9.43744 10.5964 9.43284 10.5929C9.42823 10.5894 9.42362 10.5859 9.41901 10.5824C9.4144 10.5789 9.40979 10.5754 9.40518 10.5719C9.40057 10.5684 9.39596 10.5649 9.39135 10.5614C9.38674 10.5579 9.38213 10.5544 9.37752 10.5509C9.37292 10.5474 9.36831 10.5439 9.3637 10.5404C9.35909 10.5369 9.35448 10.5334 9.34987 10.5299C9.34922 10.5294 9.32286 10.5094 9.32222 10.5089C9.29631 10.4892 9.32047 10.5075 9.29457 10.4878C9.29404 10.4874 9.26745 10.4672 9.26693 10.4668C9.26232 10.4633 9.25771 10.4598 9.25311 10.4563C9.2485 10.4528 9.2439 10.4493 9.23929 10.4458C9.22076 10.4318 9.2302 10.4389 9.21167 10.4248C9.20706 10.4213 9.20246 10.4178 9.19786 10.4143C9.19325 10.4108 9.18865 10.4074 9.18405 10.4039C9.18231 10.4025 9.15818 10.3842 9.15645 10.3829C9.15185 10.3794 9.14725 10.3759 9.14265 10.3724C9.13805 10.3689 9.13345 10.3654 9.12886 10.3619C9.10731 10.3455 9.12282 10.3573 9.10128 10.3409C9.09669 10.3375 9.09209 10.334 9.0875 10.3305C9.08291 10.327 9.07831 10.3235 9.07372 10.32C8.98332 10.2513 8.94393 10.2214 8.85404 10.153C8.80967 10.1193 8.84372 10.1452 8.79939 10.1115C8.79339 10.1069 8.75084 10.0746 8.74488 10.0701C8.70163 10.0372 8.67935 10.0203 8.63632 9.98758C8.53238 9.90859 8.52424 9.90239 8.42136 9.82421C8.41691 9.82083 8.41247 9.81745 8.40803 9.81408C8.40359 9.8107 8.39916 9.80733 8.39472 9.80396C8.36695 9.78286 8.39589 9.80485 8.36814 9.78376C8.36372 9.7804 8.35929 9.77704 8.35487 9.77368C8.35045 9.77032 8.34604 9.76696 8.34162 9.76361C8.32843 9.75358 8.32834 9.75351 8.31516 9.7435C8.28014 9.71688 8.29737 9.72997 8.26243 9.70342C8.20306 9.6583 8.26924 9.70859 8.20995 9.66354C8.18549 9.64495 8.20826 9.66225 8.18382 9.64368C8.15468 9.62153 8.18687 9.646 8.15775 9.62387C8.0883 9.57108 8.17519 9.63712 8.10584 9.58441C8.07737 9.56278 8.08258 9.56674 8.05422 9.54518C8.04814 9.54056 8.03458 9.53026 8.02852 9.52565C8.02425 9.5224 8.01998 9.51916 8.01571 9.51591C8.01144 9.51267 8.00717 9.50942 8.00291 9.50619C7.95611 9.47062 8.02415 9.52233 7.97737 9.48678C7.97313 9.48355 7.96888 9.48032 7.96464 9.4771C7.9604 9.47388 7.95616 9.47065 7.95192 9.46744C7.94769 9.46422 7.94346 9.461 7.93923 9.45779C7.935 9.45457 7.93077 9.45136 7.92655 9.44816C7.92233 9.44495 7.91811 9.44174 7.9139 9.43854C7.90969 9.43534 7.90548 9.43214 7.90127 9.42894C7.88173 9.41409 7.89558 9.42462 7.87607 9.40979C7.87188 9.4066 7.86769 9.40342 7.86351 9.40024C7.85932 9.39706 7.85514 9.39388 7.85096 9.39071C7.79742 9.35001 7.85444 9.39335 7.80102 9.35275C7.79687 9.3496 7.79273 9.34645 7.78859 9.3433C7.78445 9.34016 7.78032 9.33701 7.77619 9.33388C7.77205 9.33074 7.76793 9.3276 7.7638 9.32447C7.75968 9.32133 7.75556 9.3182 7.75145 9.31507C7.74733 9.31195 7.74322 9.30882 7.73911 9.3057C7.735 9.30258 7.7309 9.29946 7.7268 9.29634C7.7227 9.29323 7.71861 9.29012 7.71452 9.28701C7.71043 9.2839 7.70634 9.28079 7.70226 9.27769C7.69817 9.27459 7.6941 9.27149 7.69002 9.26839C7.68595 9.26529 7.68188 9.2622 7.67781 9.25911C7.67374 9.25602 7.66968 9.25293 7.66563 9.24985C7.66157 9.24677 7.65751 9.24369 7.65347 9.24061C7.64942 9.23753 7.64537 9.23446 7.64133 9.23139C7.63729 9.22832 7.63325 9.22525 7.62922 9.22218C7.62519 9.21912 7.62116 9.21606 7.61714 9.213C7.61312 9.20994 7.6091 9.20689 7.60508 9.20384L6.39492 10.7962ZM12.9083 14.764L17.6452 10.764L16.3548 9.23597L11.618 13.236L12.9083 14.764Z" fill="#221924" />
</svg>
