<svg width="11" height="11" viewBox="0 0 11 11" fill="none" xmlns="http://www.w3.org/2000/svg">
<path d="M0.302811 9.50071L4.0425 6.00004L0.302811 2.49937C-0.100938 2.12143 -0.100938 1.51296 0.302811 1.13502C0.706559 0.757077 1.35657 0.757077 1.76031 1.13502L5.5 4.63569L9.23968 1.13502C9.64343 0.757077 10.2934 0.757077 10.6972 1.13502C11.1009 1.51296 11.1009 2.12143 10.6972 2.49937L6.9575 6.00004L10.6972 9.50071C11.1009 9.87865 11.1009 10.4871 10.6972 10.8651C10.2934 11.243 9.64343 11.243 9.23968 10.8651L5.5 7.36439L1.76031 10.8651C1.35657 11.243 0.706559 11.243 0.302811 10.8651C-0.098074 10.4871 -0.098074 9.87597 0.302811 9.50071Z" fill="#1E191F" />
</svg>
