<svg width="20" height="20" viewBox="0 0 20 20" fill="none" xmlns="http://www.w3.org/2000/svg">
<path d="M8.33448 10.83C8.69235 11.3085 9.14894 11.7044 9.67327 11.9908C10.1976 12.2773 10.7774 12.4476 11.3734 12.4903C11.9693 12.533 12.5675 12.447 13.1273 12.2382C13.6871 12.0294 14.1954 11.7026 14.6178 11.28L17.1178 8.78005C17.8768 7.99421 18.2968 6.9417 18.2873 5.84921C18.2778 4.75672 17.8396 3.71167 17.0671 2.93914C16.2945 2.1666 15.2495 1.7284 14.157 1.71891C13.0645 1.70941 12.012 2.12939 11.2261 2.88838L9.79281 4.31338M11.6678 9.16338C11.3099 8.68494 10.8533 8.28906 10.329 8.0026C9.80469 7.71614 9.22489 7.54579 8.62893 7.5031C8.03298 7.46042 7.43482 7.54641 6.87502 7.75523C6.31522 7.96405 5.80688 8.29082 5.38448 8.71338L2.88448 11.2134C2.12548 11.9992 1.70551 13.0517 1.715 14.1442C1.72449 15.2367 2.1627 16.2818 2.93523 17.0543C3.70777 17.8268 4.75282 18.265 5.8453 18.2745C6.93779 18.284 7.9903 17.864 8.77614 17.1051L10.2011 15.68" stroke="#353535" stroke-width="2" stroke-linecap="round" />
</svg>
