<svg width="24" height="24" viewBox="0 0 24 24" fill="none" xmlns="http://www.w3.org/2000/svg">
<path d="M17.25 6.573V4.8H6.75V6.573L12 10.4304L17.25 6.5739V6.573ZM12.875 12V19.2L11.125 21V12L5.73325 8.0382C5.50656 7.87176 5.32177 7.65206 5.19424 7.39738C5.0667 7.14269 5.00011 6.86038 5 6.5739V4.8C5 4.32261 5.18437 3.86477 5.51256 3.52721C5.84075 3.18964 6.28587 3 6.75 3H17.25C17.7141 3 18.1592 3.18964 18.4874 3.52721C18.8156 3.86477 19 4.32261 19 4.8V6.573C19 6.85963 18.9335 7.14213 18.806 7.39698C18.6784 7.65183 18.4936 7.87167 18.2668 8.0382L12.875 12Z" fill="#221924" />
</svg>
