<svg width="18" height="18" viewBox="0 0 18 18" fill="none" xmlns="http://www.w3.org/2000/svg">
<path d="M9 7.5C9.19891 7.5 9.38968 7.57902 9.53033 7.71967C9.67098 7.86032 9.75 8.05109 9.75 8.25V12.75C9.75 12.9489 9.67098 13.1397 9.53033 13.2803C9.38968 13.421 9.19891 13.5 9 13.5C8.80109 13.5 8.61032 13.421 8.46967 13.2803C8.32902 13.1397 8.25 12.9489 8.25 12.75V8.25C8.25 8.05109 8.32902 7.86032 8.46967 7.71967C8.61032 7.57902 8.80109 7.5 9 7.5Z" fill="#A3A3A3"/>
<path d="M8.9985 6.375C9.14624 6.375 9.29253 6.3459 9.42902 6.28936C9.56551 6.23283 9.68953 6.14996 9.794 6.0455C9.89846 5.94103 9.98133 5.81701 10.0379 5.68052C10.0944 5.54403 10.1235 5.39774 10.1235 5.25C10.1235 5.10226 10.0944 4.95597 10.0379 4.81948C9.98133 4.68299 9.89846 4.55897 9.794 4.4545C9.68953 4.35004 9.56551 4.26717 9.42902 4.21064C9.29253 4.1541 9.14624 4.125 8.9985 4.125C8.70053 4.125 8.41476 4.24337 8.20407 4.45407C7.99337 4.66476 7.875 4.95053 7.875 5.2485C7.875 5.54647 7.99337 5.83224 8.20407 6.04293C8.41476 6.25363 8.70053 6.372 8.9985 6.372V6.375Z" fill="#A3A3A3"/>
<path fill-rule="evenodd" clip-rule="evenodd" d="M9 0.5625C7.89197 0.5625 6.79479 0.780742 5.77111 1.20477C4.74742 1.62879 3.81728 2.25029 3.03379 3.03379C2.25029 3.81728 1.62879 4.74742 1.20477 5.77111C0.780742 6.79479 0.5625 7.89197 0.5625 9C0.5625 11.2378 1.45145 13.3839 3.03379 14.9662C4.61613 16.5486 6.76224 17.4375 9 17.4375C11.2378 17.4375 13.3839 16.5486 14.9662 14.9662C16.5486 13.3839 17.4375 11.2378 17.4375 9C17.4375 7.89197 17.2193 6.79479 16.7952 5.77111C16.3712 4.74742 15.7497 3.81728 14.9662 3.03379C14.1827 2.25029 13.2526 1.62879 12.2289 1.20477C11.2052 0.780742 10.108 0.5625 9 0.5625ZM4.27122 4.27122C5.52537 3.01707 7.22636 2.3125 9 2.3125C10.7736 2.3125 12.4746 3.01707 13.7288 4.27122C14.9829 5.52537 15.6875 7.22636 15.6875 9C15.6875 10.7736 14.9829 12.4746 13.7288 13.7288C12.4746 14.9829 10.7736 15.6875 9 15.6875C7.22636 15.6875 5.52537 14.9829 4.27122 13.7288C3.01707 12.4746 2.3125 10.7736 2.3125 9C2.3125 7.22636 3.01707 5.52537 4.27122 4.27122Z" fill="#A3A3A3"/>
</svg>
