<svg xmlns="http://www.w3.org/2000/svg" width="24" height="24" viewBox="0 0 24 24" fill="none">
    <path d="M12 10C12.2652 10 12.5196 10.1054 12.7071 10.2929C12.8946 10.4804 13 10.7348 13 11V17C13 17.2652 12.8946 17.5196 12.7071 17.7071C12.5196 17.8946 12.2652 18 12 18C11.7348 18 11.4804 17.8946 11.2929 17.7071C11.1054 17.5196 11 17.2652 11 17V11C11 10.7348 11.1054 10.4804 11.2929 10.2929C11.4804 10.1054 11.7348 10 12 10V10Z" fill="#003C7E" />
    <path d="M11.999 8.5C12.196 8.5 12.391 8.4612 12.573 8.38582C12.755 8.31044 12.9204 8.19995 13.0597 8.06066C13.1989 7.92137 13.3094 7.75601 13.3848 7.57403C13.4602 7.39204 13.499 7.19698 13.499 7C13.499 6.80302 13.4602 6.60796 13.3848 6.42597C13.3094 6.24399 13.1989 6.07863 13.0597 5.93934C12.9204 5.80005 12.755 5.68956 12.573 5.61418C12.391 5.5388 12.196 5.5 11.999 5.5C11.6017 5.5 11.2207 5.65782 10.9398 5.93875C10.6588 6.21968 10.501 6.60071 10.501 6.998C10.501 7.39529 10.6588 7.77632 10.9398 8.05725C11.2207 8.33818 11.6017 8.496 11.999 8.496V8.5Z" fill="#003C7E" />
    <path fill-rule="evenodd" clip-rule="evenodd" d="M12 0.75C10.5226 0.75 9.05972 1.04099 7.69481 1.60636C6.3299 2.17172 5.08971 3.00039 4.04505 4.04505C3.00039 5.08971 2.17172 6.3299 1.60636 7.69481C1.04099 9.05972 0.75 10.5226 0.75 12C0.75 14.9837 1.93526 17.8452 4.04505 19.955C6.15483 22.0647 9.01631 23.25 12 23.25C14.9837 23.25 17.8452 22.0647 19.955 19.955C22.0647 17.8452 23.25 14.9837 23.25 12C23.25 10.5226 22.959 9.05972 22.3936 7.69481C21.8283 6.3299 20.9996 5.08971 19.955 4.04505C18.9103 3.00039 17.6701 2.17172 16.3052 1.60636C14.9403 1.04099 13.4774 0.75 12 0.75ZM5.69496 5.69496C7.36716 4.02277 9.63515 3.08333 12 3.08333C14.3648 3.08333 16.6328 4.02277 18.305 5.69496C19.9772 7.36716 20.9167 9.63515 20.9167 12C20.9167 14.3648 19.9772 16.6328 18.305 18.305C16.6328 19.9772 14.3648 20.9167 12 20.9167C9.63515 20.9167 7.36716 19.9772 5.69496 18.305C4.02277 16.6328 3.08333 14.3648 3.08333 12C3.08333 9.63515 4.02277 7.36716 5.69496 5.69496Z" fill="#003C7E" />
</svg>