<svg width="24" height="24" viewBox="0 0 24 24" fill="none" xmlns="http://www.w3.org/2000/svg">
<path fill-rule="evenodd" clip-rule="evenodd" d="M12 13C14.2091 13 16 11.2091 16 9C16 6.79086 14.2091 5 12 5C9.79086 5 8 6.79086 8 9C8 11.2091 9.79086 13 12 13ZM12 11C13.1046 11 14 10.1046 14 9C14 7.89543 13.1046 7 12 7C10.8954 7 10 7.89543 10 9C10 10.1046 10.8954 11 12 11Z" fill="#1257a1"></path>
<path fill-rule="evenodd" clip-rule="evenodd" d="M12 1C10.2999 1 8.31787 1.5615 6.74176 2.85104C5.13445 4.16612 4 6.2003 4 9C4 10.1776 4.33929 11.4568 4.83576 12.7117C5.3364 13.977 6.02144 15.2782 6.76881 16.5167C8.26258 18.992 10.0493 21.2892 11.2474 22.6585L12.0231 23.545L12.7719 22.6357C13.9638 21.1884 15.7448 18.7971 17.2339 16.2996C17.9786 15.0507 18.6614 13.7567 19.1608 12.5281C19.6535 11.3157 20 10.0898 20 9C20 3.81514 15.4097 1 12 1ZM6 9C6 6.7997 6.86555 5.33388 8.00824 4.39896C9.18213 3.4385 10.7001 3 12 3C14.5903 3 18 5.18486 18 9C18 9.71017 17.7631 10.6551 17.308 11.775C16.8594 12.8787 16.2297 14.0785 15.5161 15.2754C14.3754 17.1884 13.0486 19.0469 11.9791 20.4237C10.919 19.1234 9.60887 17.3521 8.48119 15.4833C7.77022 14.3052 7.14277 13.1063 6.69549 11.9758C6.24404 10.8348 6 9.82237 6 9Z" fill="#1257a1"></path>
</svg>