<svg width="115" height="8" viewBox="0 0 115 8" fill="none" xmlns="http://www.w3.org/2000/svg">
<path fill-rule="evenodd" clip-rule="evenodd" d="M2.4759 7.99978C1.84392 7.99978 1.12848 7.94337 0.688731 7.79476C0.385089 7.69109 0 7.47476 0 7.13236V0H3.63365V6.36592C3.63365 6.37358 3.63345 6.38163 3.63324 6.39001C3.63094 6.48233 3.62763 6.61502 3.88015 6.70862C3.98978 6.74374 5.75853 6.8003 6.33546 6.8003H15.1648V7.99844L22.4255 0.891682C23.1121 0.226395 23.8572 0.000145195 25.5883 0.000145195C27.2394 0.000145195 28.0638 0.226395 28.7526 0.891682L36.0148 8H32.191L30.2107 6.00142H20.9405L18.987 8L2.4759 7.99978ZM25.0601 1.69472L25.038 1.71737L21.8739 4.93903H29.2752L26.1397 1.71737L26.1143 1.69164C26.0002 1.5753 25.8185 1.3901 25.5883 1.3901C25.3568 1.3901 25.1732 1.57859 25.0601 1.69472Z" fill="#1257A1" />
<path d="M67.4046 6.30576C68.3029 5.91108 68.3298 5.32244 68.3298 4.92776V0.000145195H72.0331V5.13047C72.0331 5.79688 71.8095 6.54291 70.3212 7.15347C68.3589 7.96807 65.2988 8 63.5021 8C61.7072 8 58.6484 7.96807 56.6823 7.15347C55.1974 6.54291 54.9727 5.79696 54.9727 5.13047V0.000145195H58.6746V4.92776C58.6746 5.36637 58.7062 5.89872 59.6302 6.30576C60.6694 6.75761 62.3538 6.81346 63.5021 6.81346C64.5693 6.81346 66.3946 6.75761 67.4046 6.30576Z" fill="#1257A1" />
<path d="M39.336 8C38.44 8 36.6479 7.9657 36.6479 7.17583C36.6479 6.68584 37.2907 6.344 37.8528 6.10224L48.5514 1.58918C48.7204 1.52146 48.8882 1.42905 48.8882 1.34906C48.8882 1.30307 48.8047 1.20098 48.3569 1.20098H37.405V0.000145195H51.4939C52.5878 0.000145195 53.7083 0.17047 53.7083 0.823495C53.7083 1.3265 53.1687 1.55753 52.6216 1.79176L52.5878 1.80623L41.7458 6.46752L41.7432 6.46861C41.6046 6.52591 41.4653 6.5835 41.4653 6.67445C41.4653 6.77773 41.6339 6.79961 41.8017 6.79961H53.3995V7.99993L39.336 8Z" fill="#1257A1" />
<path d="M74.7252 0.320142C73.9565 0.628605 73.928 1.0286 73.928 1.36028L73.9279 8H77.5546V1.77226C77.5546 1.61278 77.5546 1.4638 77.939 1.32739C78.2395 1.21197 78.5165 1.20028 78.9009 1.20028H84.7795C85.3571 1.20028 86.2361 1.20028 86.8106 1.43998C87.197 1.60028 87.4992 1.9208 87.4992 2.54881C87.4992 2.82408 87.4431 3.39405 87.0604 3.64677C86.5655 3.96722 85.7129 4.00078 85.0821 4.00078H81.4563C80.4135 4.00078 79.8355 4.22909 79.8355 4.55006V4.73209C79.8355 4.95973 80.3561 5.24542 80.7408 5.40609L87.0604 7.99993H91.6201L84.3144 5.17725V5.11958H86.7872C88.9799 5.11958 89.9168 4.68639 90.4104 4.29815C91.1805 3.70274 91.2353 3.0742 91.2353 2.49262C91.2353 1.90896 91.1804 1.28051 90.273 0.731152C89.1489 0.0328889 87.4992 0.000145195 86.153 0.000145195H77.0321C76.3213 0.000145195 75.4151 0.0444983 74.7252 0.320142Z" fill="#1257A1" />
<path d="M96.0444 0.000145195H92.8851V8H96.0444V0.000145195Z" fill="#1257A1" />
<path d="M104.324 1.19877V8H108.024V1.19877H115V0.000145195H97.3077V1.19877H104.324Z" fill="#1257A1" />
</svg>
