<svg width="229" height="38" viewBox="0 0 229 38" fill="none" xmlns="http://www.w3.org/2000/svg">
<g clip-path="url(#clip0_9788_31893)">
<path d="M107.175 33.2468C108.597 32.6054 108.64 31.6489 108.64 31.0075V23H114.5V31.3369C114.5 32.4199 114.147 33.6322 111.791 34.6244C108.686 35.9481 103.843 36 100.999 36C98.1586 36 93.3176 35.9481 90.2061 34.6244C87.8561 33.6322 87.5004 32.42 87.5004 31.3369V23H93.3591V31.0075C93.3591 31.7203 93.4092 32.5854 94.8715 33.2468C96.5162 33.9811 99.1818 34.0718 100.999 34.0718C102.688 34.0718 105.577 33.9811 107.175 33.2468Z" fill="#1257A1" />
<path d="M4.4184 35.9999C3.41821 35.9999 2.28595 35.9082 1.59 35.6667C1.10945 35.4983 0.5 35.1467 0.5 34.5903V23H6.25066V33.3448C6.25066 33.4943 6.20483 33.7358 6.64078 33.9017C6.81428 33.9588 9.61352 34.0507 10.5266 34.0507H24.5V36L4.4184 35.9999Z" fill="#1257A1" />
<path d="M40.1254 25.7905C40.3002 25.6082 40.605 25.2587 40.9963 25.2587C41.389 25.2587 41.6924 25.6082 41.869 25.7905L46.8313 31.0258H35.1179L40.1254 25.7905ZM24.4975 36H30.549L33.6407 32.7522H48.3119L51.4459 36H57.4975L46.0043 24.4488C44.9142 23.3677 43.6095 23 40.9963 23C38.2568 23 37.0776 23.3677 35.9909 24.4488L24.4975 36Z" fill="#1257A1" />
<path d="M62.7535 36C61.3354 36 58.4993 35.9443 58.4993 34.6607C58.4993 33.8645 59.5166 33.3089 60.4061 32.9161L77.3379 25.5822C77.6054 25.4722 77.8709 25.322 77.8709 25.192C77.8709 25.1173 77.7388 24.9514 77.0301 24.9514H59.6975V23H81.9948C83.726 23 85.4993 23.2768 85.4993 24.338C85.4993 25.1722 84.6098 25.5461 83.726 25.9349L66.5672 33.5097C66.3466 33.6034 66.1234 33.6972 66.1234 33.8459C66.1234 34.0138 66.3902 34.0493 66.6558 34.0493H85.0106V35.9999L62.7535 36Z" fill="#1257A1" />
<path d="M117.5 25.2103C117.5 24.6713 117.545 24.0213 118.761 23.52C119.853 23.0721 121.287 23 122.412 23H136.847C138.977 23 141.588 23.0532 143.367 24.1879C144.803 25.0806 144.89 26.1019 144.89 27.0504C144.89 27.9954 144.804 29.0168 143.585 29.9844C142.804 30.6153 141.321 31.3192 137.851 31.3192H133.937V31.413L145.499 35.9999H138.283L128.282 31.7848C127.673 31.5237 126.849 31.0595 126.849 30.6895V30.3937C126.849 29.8722 127.764 29.5012 129.414 29.5012H135.152C136.151 29.5012 137.5 29.4466 138.283 28.9259C138.889 28.5152 138.977 27.589 138.977 27.1417C138.977 26.1211 138.499 25.6003 137.888 25.3398C136.978 24.9503 135.587 24.9503 134.673 24.9503H125.37C124.761 24.9503 124.323 24.9692 123.847 25.1568C123.239 25.3785 123.239 25.6206 123.239 25.8797V36H117.499L117.5 25.2103Z" fill="#1257A1" />
<path d="M152.501 23H147.501V36H152.501V23Z" fill="#1257A1" />
<path d="M165.604 36V24.9478H154.501V23H182.501V24.9478H171.46V36H165.604Z" fill="#1257A1" />
<path d="M228.5 0H190.5V38H228.5V0Z" fill="#1257A1" />
<path fill-rule="evenodd" clip-rule="evenodd" d="M200.07 26.03C200.07 26.7574 200.093 27.4843 200.117 28.0861L200.195 29.9999H201.371L201.08 25H199.509L198.941 26.6612C198.767 27.2177 198.586 27.8782 198.435 28.4564H198.411C198.293 27.8706 198.127 27.2469 197.963 26.6687L197.441 25.0001H195.838L195.5 30H196.612L196.707 28.1011C196.734 27.6782 196.754 27.1874 196.773 26.7044L196.773 26.7041C196.782 26.4749 196.792 26.2476 196.801 26.03H196.817C196.944 26.6837 197.127 27.3954 197.298 27.9819L197.868 29.9181H198.807L199.453 27.9669C199.66 27.3807 199.881 26.6687 200.046 26.03H200.07ZM203.106 27.8853H205.193V26.966H203.106V25.9275H205.319V25H201.823V30H205.435V29.0725H203.106V27.8853ZM209.514 25V25.9099H207.119V26.762C207.304 26.7394 207.563 26.7258 207.782 26.7258C208.334 26.7258 208.908 26.85 209.321 27.1291C209.701 27.3788 209.952 27.7673 209.952 28.311C209.952 28.796 209.75 29.1699 209.434 29.427C208.908 29.853 208.051 30 207.216 30C206.609 30 206.163 29.963 205.887 29.9261V25H209.514ZM207.109 29.1343C207.248 29.155 207.418 29.1625 207.589 29.1625C207.887 29.1625 208.188 29.0746 208.39 28.9054C208.551 28.7745 208.655 28.5753 208.655 28.3331C208.655 28.084 208.542 27.9002 208.365 27.7753C208.147 27.6211 207.839 27.554 207.547 27.554C207.409 27.554 207.264 27.5627 207.109 27.5841V29.1343ZM211.978 27.8853H213.803V26.966H211.978V25.9275H213.913V25H210.855V30H214.016V29.0725H211.978V27.8853ZM218.532 25V29.9271H217.472V25.9139H216.403V27.0838C216.403 28.348 216.249 29.32 215.536 29.7588C215.299 29.8977 214.977 30 214.601 30L214.468 29.1002C214.698 29.0715 214.888 28.9687 215.006 28.8377C215.292 28.531 215.361 27.9024 215.361 27.1567V25H218.532ZM220.981 26.7178V25H219.887V29.9261C220.132 29.963 220.535 30 221.076 30C221.831 30 222.644 29.853 223.111 29.3686C223.348 29.1108 223.5 28.7597 223.5 28.2889C223.5 27.1877 222.616 26.6815 221.572 26.6815C221.364 26.6815 221.132 26.7032 220.981 26.7178ZM221.384 29.1625C221.226 29.1625 221.098 29.155 220.975 29.1343V27.5694C221.111 27.5541 221.239 27.5399 221.399 27.5399C221.924 27.5399 222.349 27.7753 222.349 28.3404C222.349 28.8993 221.916 29.1625 221.384 29.1625Z" fill="white" />
</g>
<defs>
<clipPath id="clip0_9788_31893">
<rect width="228" height="38" fill="white" transform="translate(0.5)" />
</clipPath>
</defs>
</svg>
