<svg width="14" height="10" viewBox="0 0 14 10" fill="none" xmlns="http://www.w3.org/2000/svg">
<path d="M2.98776 3.55406C2.3643 3.00854 1.41666 3.07171 0.871135 3.69517C0.325612 4.31862 0.388788 5.26627 1.01224 5.81179L2.98776 3.55406ZM5.90244 8.09756L4.91468 9.22643C5.50899 9.74644 6.4047 9.71662 6.9631 9.15822L5.90244 8.09756ZM13.0607 3.06066C13.6464 2.47487 13.6464 1.52513 13.0607 0.93934C12.4749 0.353553 11.5251 0.353553 10.9393 0.93934L13.0607 3.06066ZM1.01224 5.81179L4.91468 9.22643L6.8902 6.9687L2.98776 3.55406L1.01224 5.81179ZM6.9631 9.15822L13.0607 3.06066L10.9393 0.93934L4.84178 7.0369L6.9631 9.15822Z" fill="white" />
</svg>
