<svg width="22" height="22" viewBox="0 0 22 22" fill="none" xmlns="http://www.w3.org/2000/svg">
<path d="M16.3867 13.6182C15.9877 13.2047 15.5065 12.9836 14.9965 12.9836C14.4906 12.9836 14.0053 13.2006 13.5899 13.6141L12.2903 14.9039C12.1833 14.8466 12.0764 14.7933 11.9736 14.7401C11.8255 14.6664 11.6857 14.5968 11.5664 14.5231C10.349 13.7533 9.24263 12.7502 8.18152 11.4522C7.66741 10.8053 7.32193 10.2607 7.07105 9.70793C7.4083 9.40084 7.72088 9.08147 8.02523 8.77438C8.14039 8.65973 8.25555 8.54099 8.37071 8.42634C9.23441 7.56649 9.23441 6.45278 8.37071 5.59293L7.2479 4.47512C7.1204 4.34819 6.98879 4.21716 6.8654 4.08614C6.61863 3.83228 6.35952 3.57022 6.09219 3.32455C5.69324 2.93148 5.21615 2.72266 4.71438 2.72266C4.21261 2.72266 3.7273 2.93148 3.31601 3.32455C3.3119 3.32865 3.3119 3.32865 3.30778 3.33274L1.90941 4.73717C1.38297 5.26127 1.08273 5.90002 1.01692 6.64113C0.918215 7.83673 1.27192 8.95044 1.54337 9.67927C2.20965 11.4686 3.20496 13.1269 4.6897 14.9039C6.49113 17.0453 8.65861 18.7364 11.1345 19.9279C12.0805 20.3742 13.3432 20.9024 14.7539 20.9925C14.8402 20.9966 14.9307 21.0007 15.013 21.0007C15.963 21.0007 16.7609 20.6608 17.3861 19.9852C17.3902 19.977 17.3984 19.9729 17.4025 19.9647C17.6164 19.7068 17.8632 19.4734 18.1223 19.2236C18.2991 19.0558 18.4801 18.8797 18.657 18.6954C19.0641 18.2737 19.278 17.7824 19.278 17.2787C19.278 16.771 19.06 16.2838 18.6446 15.8743L16.3867 13.6182ZM17.8591 17.9298C17.6987 18.1017 17.5342 18.2573 17.3573 18.4293C17.09 18.6832 16.8185 18.9493 16.5635 19.2482C16.1481 19.6904 15.6587 19.8992 15.0171 19.8992C14.9554 19.8992 14.8896 19.8992 14.8279 19.8951C13.6064 19.8173 12.4712 19.3424 11.6199 18.937C9.29199 17.8151 7.2479 16.2223 5.54929 14.2037C4.14681 12.5209 3.20908 10.965 2.58803 9.29438C2.20554 8.27485 2.0657 7.48051 2.12739 6.73121C2.16852 6.25215 2.3536 5.85498 2.69497 5.51513L4.09745 4.11889C4.29898 3.93054 4.51285 3.82818 4.72261 3.82818C4.98172 3.82818 5.19147 3.98377 5.32308 4.1148C5.3272 4.11889 5.33131 4.12299 5.33542 4.12708C5.58631 4.36047 5.82485 4.60205 6.07574 4.86C6.20323 4.99103 6.33485 5.12205 6.46646 5.25717L7.58927 6.37498C8.02523 6.809 8.02523 7.21027 7.58927 7.64429C7.46999 7.76303 7.35483 7.88177 7.23556 7.99642C6.89008 8.34855 6.56105 8.67611 6.20324 8.99548C6.19501 9.00367 6.18678 9.00777 6.18267 9.01596C5.82897 9.36809 5.89477 9.71203 5.9688 9.94542C5.97292 9.9577 5.97703 9.96998 5.98114 9.98227C6.27315 10.6865 6.68444 11.3498 7.30959 12.1401L7.31371 12.1442C8.44885 13.5363 9.6457 14.6214 10.9659 15.4526C11.1346 15.559 11.3073 15.645 11.4718 15.7269C11.6199 15.8006 11.7597 15.8702 11.879 15.9439C11.8954 15.9521 11.9119 15.9644 11.9283 15.9726C12.0682 16.0422 12.1998 16.0749 12.3355 16.0749C12.6769 16.0749 12.8907 15.862 12.9607 15.7924L14.3673 14.3921C14.5071 14.2529 14.7292 14.085 14.9883 14.085C15.2433 14.085 15.453 14.2447 15.5805 14.3839C15.5847 14.388 15.5847 14.388 15.5888 14.3921L17.855 16.6482C18.2786 17.0658 18.2786 17.4957 17.8591 17.9298Z" fill="#1257a1" stroke="#1257a1" />
<path d="M11.4191 5.94926C12.5742 6.14325 13.6235 6.68994 14.4612 7.52761C15.2989 8.36528 15.8411 9.41458 16.0395 10.5697C16.088 10.8607 16.3393 11.0635 16.6259 11.0635C16.6612 11.0635 16.692 11.0591 16.7273 11.0546C17.0536 11.0017 17.2696 10.6931 17.2167 10.3669C16.9786 8.96929 16.3173 7.69515 15.3077 6.68553C14.2981 5.67592 13.0239 5.0146 11.6263 4.77652C11.3001 4.72362 10.9959 4.93965 10.9386 5.26149C10.8812 5.58333 11.0929 5.89636 11.4191 5.94926Z" fill="#1257a1" />
<path d="M20.9936 10.1961C20.6012 7.8947 19.5166 5.80052 17.8501 4.13399C16.1836 2.46747 14.0894 1.3829 11.788 0.990519C11.4662 0.933205 11.162 1.15364 11.1046 1.47549C11.0517 1.80174 11.2678 2.10595 11.594 2.16326C13.6485 2.51155 15.5223 3.4859 17.0124 4.97166C18.5026 6.46184 19.4725 8.33558 19.8208 10.3901C19.8693 10.6811 20.1206 10.8839 20.4072 10.8839C20.4425 10.8839 20.4733 10.8795 20.5086 10.875C20.8305 10.8265 21.0509 10.5179 20.9936 10.1961Z" fill="#1257a1" />
</svg>
