<svg width="24" height="18" viewBox="0 0 24 18" fill="none" xmlns="http://www.w3.org/2000/svg">
<path fill-rule="evenodd" clip-rule="evenodd" d="M21.75 1.5L2.25 1.5V4.75652C3.99712 5.37431 5.25 7.03921 5.25 9C5.25 10.9608 3.99712 12.6257 2.25 13.2435L2.25 16.5H21.75V13.2435C20.0029 12.6257 18.75 10.9608 18.75 9C18.75 7.03921 20.0029 5.37431 21.75 4.75651V1.5ZM2.25 0C1.42157 0 0.75 0.671573 0.75 1.5V5.25C0.75 5.66421 1.091 5.99038 1.49241 6.09257C2.79018 6.42296 3.75 7.59939 3.75 9C3.75 10.4006 2.79018 11.577 1.49241 11.9074C1.091 12.0096 0.75 12.3358 0.75 12.75V16.5C0.75 17.3284 1.42157 18 2.25 18H21.75C22.5784 18 23.25 17.3284 23.25 16.5V12.75C23.25 12.3358 22.909 12.0096 22.5076 11.9074C21.2098 11.577 20.25 10.4006 20.25 9C20.25 7.59939 21.2098 6.42296 22.5076 6.09257C22.909 5.99038 23.25 5.66421 23.25 5.25V1.5C23.25 0.671573 22.5784 0 21.75 0H2.25Z" fill="#003C7E" />
<path fill-rule="evenodd" clip-rule="evenodd" d="M14.25 3L9.75001 14.25L11.1427 14.8071L15.6427 3.55709L14.25 3ZM9 7.5C9.41421 7.5 9.75 7.16421 9.75 6.75C9.75 6.33579 9.41421 6 9 6C8.58579 6 8.25 6.33579 8.25 6.75C8.25 7.16421 8.58579 7.5 9 7.5ZM9 9C10.2426 9 11.25 7.99264 11.25 6.75C11.25 5.50736 10.2426 4.5 9 4.5C7.75736 4.5 6.75 5.50736 6.75 6.75C6.75 7.99264 7.75736 9 9 9ZM15.75 12.75C16.1642 12.75 16.5 12.4142 16.5 12C16.5 11.5858 16.1642 11.25 15.75 11.25C15.3358 11.25 15 11.5858 15 12C15 12.4142 15.3358 12.75 15.75 12.75ZM15.75 14.25C16.9926 14.25 18 13.2426 18 12C18 10.7574 16.9926 9.75 15.75 9.75C14.5074 9.75 13.5 10.7574 13.5 12C13.5 13.2426 14.5074 14.25 15.75 14.25Z" fill="#003C7E" />
</svg>
