<svg width="83" height="24" viewBox="0 0 83 24" fill="none" xmlns="http://www.w3.org/2000/svg">
<path d="M8.72127 0C10.3839 0 10.8899 1.15663 11.3237 2.31325C11.5405 2.81928 15.7333 14.4578 15.8779 14.747C15.8779 14.8193 15.8779 15.0361 15.7333 15.0361C15.5887 15.1084 13.3478 15.9759 13.2755 15.9759C13.1309 16.0482 12.9863 15.9759 12.9863 15.8313C12.9863 15.6867 11.9743 13.3012 11.8297 13.012C11.5405 13.012 5.8297 13.012 5.54054 13.012C5.46826 13.3012 4.5285 15.8313 4.45621 15.9759C4.38392 16.1205 4.31163 16.1928 4.16705 16.1205C4.02247 16.0482 1.8538 15.1807 1.70922 15.1084C1.56464 15.0361 1.49235 14.8916 1.56464 14.8193C1.70922 14.3855 5.90199 2.96386 6.11886 2.31325C6.55259 1.15663 7.05862 0 8.72127 0ZM1.2032 20.8193C1.05862 20.8193 0.986328 20.9639 0.986328 21.0361V23.7831C0.986328 23.9277 1.05862 24 1.2032 24H16.1671C16.3116 24 16.3839 23.8554 16.3839 23.7831V21.0361C16.3839 20.8916 16.3116 20.8193 16.1671 20.8193H1.2032ZM8.64898 3.83133L6.55259 10.1928H10.8177L8.64898 3.83133ZM64.2393 13.1566C64.2393 13.8795 63.8056 14.3855 63.0827 14.3855C62.7936 14.3855 62.5767 14.3855 62.143 14.3133V12.1446C62.2875 12.1446 62.649 12.0723 63.0827 12.0723C63.8056 12 64.2393 12.3614 64.2393 13.1566ZM65.7574 13.0843C65.7574 11.7108 64.9622 10.8434 63.2996 10.8434C62.8658 10.8434 62.5767 10.9157 62.143 10.988V9.03614C62.4321 8.96386 62.8658 8.96385 63.3719 8.96385C63.8779 8.96385 64.4562 8.96386 65.0345 9.03614L65.1068 7.95181C64.5285 7.80723 63.5887 7.73494 62.9381 7.73494C62.2875 7.73494 61.2032 7.87952 60.6972 8.0241V15.1807C61.4924 15.4699 62.2152 15.6145 63.0104 15.6145C64.8177 15.5422 65.7574 14.6024 65.7574 13.0843ZM48.5526 12.6506C48.5526 13.6627 48.1912 14.3133 47.4683 14.3133C47.1791 14.3133 47.0345 14.3133 46.7454 14.1687V11.2048C47.1068 11.0602 47.2514 11.0602 47.5405 11.0602C48.2634 11.0602 48.5526 11.5663 48.5526 12.6506ZM43.6369 12.7229C43.6369 11.6386 43.9984 11.0602 44.649 11.0602C44.9381 11.0602 45.0827 11.0602 45.4442 11.2048V14.1687C45.155 14.241 45.0104 14.3133 44.7213 14.3133C43.9261 14.3133 43.6369 13.6627 43.6369 12.7229ZM46.8177 17.2048V15.253C46.9622 15.3253 47.3237 15.5422 47.9743 15.5422C49.2032 15.5422 50.0707 14.5301 50.0707 12.7229C50.0707 10.7711 49.2032 9.90361 47.7574 9.90361C47.396 9.90361 47.1791 9.9759 46.8177 10.0482V7.73494H45.3719V10.0482C45.0827 9.90361 44.8658 9.90361 44.4321 9.90361C42.9863 9.90361 42.1189 10.7711 42.1189 12.7229C42.1189 14.5301 42.914 15.5422 44.2152 15.5422C44.7936 15.5422 45.155 15.3976 45.3719 15.253V17.2048H46.8177ZM36.0466 15.3976V10.1928C35.2514 9.9759 34.6731 9.83133 33.8779 9.83133C33.0827 9.83133 32.5044 9.90361 31.7092 10.1928V12.8675C31.7092 13.5904 31.7092 13.8072 31.6369 14.0241C31.5646 14.241 31.4201 14.4578 31.1309 14.6747L31.4924 15.5422C32.649 15.253 33.0827 14.747 33.0827 13.1566V11.2048C33.4442 11.1325 33.5164 11.1325 33.8056 11.1325C34.0948 11.1325 34.1671 11.1325 34.5285 11.2048V15.4699H36.0466V15.3976ZM53.5405 14.241C53.2514 14.3133 53.0345 14.3855 52.7454 14.3855C52.2393 14.3855 51.9502 14.1687 51.9502 13.6627C51.9502 13.0843 52.3116 12.9398 53.0345 12.9398C53.1791 12.9398 53.396 12.9398 53.4683 13.012V13.3735C53.4683 13.8072 53.5405 14.0964 53.5405 14.241ZM55.3478 14.8916C54.9863 14.3133 54.8418 13.9518 54.8418 13.3012V11.8554C54.8418 11.0602 54.7695 10.7711 54.5526 10.4819C54.2634 10.0482 53.7574 9.90361 52.8899 9.90361C52.2393 9.90361 51.661 9.9759 51.0827 10.1205L51.2996 11.1325C51.7333 11.0602 52.0948 11.0602 52.3839 11.0602C53.3237 11.0602 53.4683 11.2048 53.4683 11.9277V12.2169C53.2514 12.1446 53.0345 12.1446 52.7454 12.1446C51.2996 12.1446 50.5767 12.8675 50.5767 13.9518C50.5767 15.0361 51.3719 15.6145 52.3839 15.6145C52.7454 15.6145 53.1068 15.5422 53.396 15.3976C53.6128 15.3253 53.6851 15.253 53.902 15.1084C54.0466 15.3253 54.3357 15.5422 54.408 15.5422L55.3478 14.8916ZM69.2273 14.241C68.9381 14.3133 68.7213 14.3855 68.4321 14.3855C67.9261 14.3855 67.6369 14.1687 67.6369 13.6627C67.6369 13.0843 67.9984 12.9398 68.7213 12.9398C68.8658 12.9398 69.0827 12.9398 69.155 13.012V13.3735C69.155 13.8072 69.155 14.0964 69.2273 14.241ZM71.0345 14.8916C70.6731 14.3133 70.5285 13.9518 70.5285 13.3012V11.8554C70.5285 11.0602 70.4562 10.7711 70.2393 10.4819C69.9502 10.0482 69.4442 9.90361 68.5767 9.90361C67.9261 9.90361 67.3478 9.9759 66.7695 10.1205L66.9863 11.1325C67.4201 11.0602 67.7815 11.0602 68.0707 11.0602C69.0104 11.0602 69.0827 11.2048 69.0827 11.9277V12.2169C68.8658 12.1446 68.649 12.1446 68.3598 12.1446C66.914 12.1446 66.1911 12.8675 66.1911 13.9518C66.1911 15.0361 66.9863 15.6145 67.9984 15.6145C68.3598 15.6145 68.7213 15.5422 69.0104 15.3976C69.2273 15.3253 69.2996 15.253 69.5164 15.1084C69.661 15.3253 69.9502 15.5422 70.0948 15.5422L71.0345 14.8916ZM40.0948 13.5181C40.0948 14.0241 39.8779 14.3855 39.2273 14.3855C39.0104 14.3855 38.9381 14.3855 38.5767 14.3133V12.7229C38.9381 12.6506 39.0104 12.6506 39.2273 12.6506C39.8779 12.7229 40.0948 13.012 40.0948 13.5181ZM37.2032 9.9759V15.1807C37.8538 15.4699 38.649 15.6145 39.2996 15.6145C40.8177 15.6145 41.6128 14.8193 41.6128 13.5181C41.6128 12.3614 40.8899 11.6386 39.5887 11.6386C39.2273 11.6386 39.0827 11.7108 38.649 11.7831V10.0482H37.2032V9.9759ZM76.2393 15.3976V9.9759H74.7936V12H73.2032V9.9759H71.7574V15.3976H73.2032V13.1566H74.7936V15.3976H76.2393ZM82.0948 15.3976C82.0948 15.3976 81.2996 13.7349 81.155 13.3735C80.9381 12.9398 80.7213 12.6506 80.2875 12.5783C80.5767 12.506 80.7936 12.3614 81.0827 11.7831C81.2996 11.2771 81.3719 11.1325 81.5164 10.988C81.661 10.8434 81.8779 10.9157 81.8779 10.9157L81.9502 9.90361C81.7333 9.90361 81.5164 9.90361 81.2996 9.90361C80.9381 9.90361 80.7213 10.0482 80.5044 10.1928C80.3598 10.3373 80.2875 10.5542 80.143 10.8434C79.9984 11.1325 79.9261 11.3494 79.7815 11.6386C79.6369 11.9277 79.5646 12.0723 79.2032 12.0723H78.9863V10.0482H77.5405V15.4699H78.9863V13.2289H79.2032C79.6369 13.2289 79.7092 13.3012 79.9261 13.7349C80.2152 14.241 80.649 15.3976 80.649 15.3976H82.0948ZM29.1068 15.3976H30.7695L28.3116 7.80723C28.0225 7.73494 27.7333 7.66265 27.3719 7.66265C27.0104 7.66265 26.8658 7.73494 26.5767 7.80723L23.9743 15.3976H25.5646C25.5646 15.3976 25.7815 14.747 25.9984 13.8795H28.7454C28.8899 14.747 29.1068 15.3976 29.1068 15.3976ZM26.3598 12.6506C26.3598 12.6506 26.7936 11.1325 26.8658 10.9157C27.0827 10.2651 27.2996 9.3253 27.2996 9.3253H27.3719C27.3719 9.3253 27.5887 10.3373 27.8056 10.9157C27.8779 11.1325 28.3116 12.6506 28.3116 12.6506H26.3598ZM57.8056 11.7831C57.2996 11.7831 56.8658 12.2169 56.8658 12.7229C56.8658 13.2289 57.2996 13.6627 57.8056 13.6627C58.3116 13.6627 58.7454 13.2289 58.7454 12.7229C58.6731 12.2169 58.3116 11.7831 57.8056 11.7831Z" fill="#E52713" />
</svg>
