<svg width="39" height="25" viewBox="0 0 39 25" fill="none" xmlns="http://www.w3.org/2000/svg">
<path d="M24.6398 2.72656H14.1797V21.5071H24.6398V2.72656Z" fill="#FF5A00" />
<path d="M14.8769 12.1175C14.8769 8.30186 16.6718 4.91533 19.4261 2.72723C17.3991 1.13448 14.8421 0.171875 12.053 0.171875C5.44573 0.171875 0.0996094 5.51455 0.0996094 12.1175C0.0996094 18.7205 5.44573 24.0631 12.053 24.0631C14.8421 24.0631 17.3991 23.1005 19.4261 21.5078C16.668 19.3506 14.8769 15.9331 14.8769 12.1175Z" fill="#EB001B" />
<path d="M38.7543 12.1175C38.7543 18.7205 33.4081 24.0631 26.8009 24.0631C24.0118 24.0631 21.4548 23.1005 19.4277 21.5078C22.2169 19.3158 23.977 15.9331 23.977 12.1175C23.977 8.30186 22.182 4.91533 19.4277 2.72723C21.4509 1.13448 24.0079 0.171875 26.797 0.171875C33.4081 0.171875 38.7543 5.54934 38.7543 12.1175Z" fill="#F79E1B" />
</svg>
