<svg width="48" height="14" viewBox="0 0 48 14" fill="none" xmlns="http://www.w3.org/2000/svg">
<path fill-rule="evenodd" clip-rule="evenodd" d="M4.36305 0.174093C4.78457 0.171546 6.03729 0.0575794 6.56792 1.86654C6.92536 3.08508 7.49474 5.08111 8.27605 7.85461H8.59425C9.43215 4.93059 10.0077 2.93456 10.321 1.86654C10.8572 0.038736 12.1976 0.174129 12.7337 0.174129L16.8703 0.174134V13.1718H12.6542V5.51208H12.3715L10.0212 13.1718H6.84911L4.49883 5.5064H4.21611V13.1718H0V0.174134L4.36305 0.174093ZM22.9246 0.174134V7.83961H23.2609L26.1198 1.53634C26.6748 0.281976 27.8576 0.174134 27.8576 0.174134H31.9375V13.1719H27.6333V5.5064H27.297L24.4941 11.8097C23.9392 13.0584 22.7003 13.1719 22.7003 13.1719H18.6204V0.174134H22.9246ZM46.8146 6.35075C46.2142 8.06928 44.3288 9.30005 42.2413 9.30005H37.7276V13.1719H33.6345V6.35075H46.8146Z" fill="#0F754E" />
<path fill-rule="evenodd" clip-rule="evenodd" d="M42.4387 0.175781H33.4199C33.6346 3.06952 36.1017 5.54675 38.6556 5.54675H47.099C47.5863 3.14171 45.9089 0.175781 42.4387 0.175781Z" fill="url(#paint0_linear_10106_40642)" />
<defs>
<linearGradient id="paint0_linear_10106_40642" x1="47.1818" y1="3.55435" x2="33.4199" y2="3.55435" gradientUnits="userSpaceOnUse">
<stop stop-color="#1F5CD7" />
<stop offset="1" stop-color="#02AEFF" />
</linearGradient>
</defs>
</svg>
