<svg width="103" height="16" viewBox="0 0 103 16" fill="none" xmlns="http://www.w3.org/2000/svg">
<path d="M14.3125 3.10938C14.6874 3.60071 15.0049 4.13451 15.2584 4.70005L8.06769 10.072L5.0625 8.16287V5.86604L8.06769 7.77521L14.3125 3.10938Z" fill="#21A038" />
<path d="M1.99558 7.99925C1.99558 7.89618 1.99806 7.7938 2.00302 7.69201L0.181794 7.60156C0.175595 7.73349 0.171877 7.86668 0.171877 8.00111C0.171102 9.05142 0.37495 10.0915 0.771732 11.0618C1.16851 12.032 1.75041 12.9134 2.48405 13.6552L3.7759 12.3466C3.21117 11.7766 2.76316 11.099 2.45763 10.353C2.15211 9.60691 1.99508 8.80699 1.99558 7.99925Z" fill="url(#paint0_linear_10106_40646)" />
<path d="M8.06648 1.847C8.16812 1.847 8.26913 1.85077 8.36956 1.85579L8.46069 0.00942897C8.33013 0.00314669 8.1987 5.93341e-06 8.06648 5.93341e-06C7.02961 -0.0012755 6.00277 0.205018 5.04484 0.60704C4.0869 1.00906 3.21676 1.5989 2.48438 2.34267L3.77622 3.6519C4.33869 3.07938 5.00729 2.62519 5.74357 2.31544C6.47985 2.00569 7.26925 1.84649 8.06648 1.847Z" fill="url(#paint1_linear_10106_40646)" />
<path d="M8.06672 14.1519C7.96508 14.1519 7.86402 14.1519 7.763 14.1437L7.67188 15.9895C7.80287 15.9962 7.9345 15.9996 8.06672 15.9996C9.10315 16.0006 10.1295 15.7942 11.0869 15.3921C12.0443 14.9899 12.9139 14.4 13.6457 13.6562L12.3564 12.3477C11.7938 12.9199 11.1253 13.3738 10.3891 13.6834C9.65301 13.9931 8.86375 14.1523 8.06672 14.1519Z" fill="url(#paint2_linear_10106_40646)" />
<path d="M11.4868 2.92128L13.0216 1.77476C11.6188 0.623503 9.86763 -0.00319576 8.0625 1.22551e-05V1.84763C9.28485 1.8461 10.4788 2.22047 11.4868 2.92128Z" fill="url(#paint3_linear_10106_40646)" />
<path d="M15.9596 8.00003C15.9606 7.51938 15.9191 7.03957 15.8356 6.56641L14.1365 7.83542C14.1365 7.89011 14.1365 7.94475 14.1365 8.00003C14.1369 8.85962 13.9591 9.70973 13.6147 10.4952C13.2701 11.2807 12.7666 11.9841 12.1367 12.5597L13.3623 13.9324C14.1811 13.1832 14.8355 12.2679 15.283 11.246C15.7305 10.224 15.9609 9.11809 15.9596 8.00003Z" fill="#21A038" />
<path d="M8.06649 14.1517C7.21824 14.152 6.37939 13.9717 5.60422 13.6226C4.8291 13.2735 4.13494 12.7633 3.56672 12.125L2.21289 13.3664C2.95208 14.1964 3.85516 14.8597 4.86358 15.3133C5.87199 15.7669 6.9632 16.0006 8.06649 15.9993V14.1517Z" fill="url(#paint4_linear_10106_40646)" />
<path d="M3.99534 3.43909L2.77045 2.06641C1.95131 2.81549 1.29668 3.7307 0.849014 4.75269C0.401354 5.77466 0.170655 6.8806 0.17188 7.99876H1.99559C1.99521 7.13921 2.17303 6.28911 2.51752 5.50362C2.86202 4.71816 3.36549 4.01478 3.99534 3.43909Z" fill="url(#paint5_linear_10106_40646)" />
<path d="M45.7284 4.57359L47.9871 2.90625H40.4277V12.9255H47.9871V11.2582H42.5847V8.69174H47.1932V7.0244H42.5847V4.57359H45.7284Z" fill="#21A038" />
<path d="M35.3407 6.81124H32.7163V4.57475H36.9048L39.1621 2.90234H30.5605V12.9216H35.0631C37.5874 12.9216 39.0362 11.7753 39.0362 9.77597C39.0362 7.86332 37.7239 6.81124 35.3407 6.81124ZM34.966 11.2538H32.7163V8.47755H34.966C36.3313 8.47755 36.9715 8.94279 36.9715 9.86568C36.9715 10.7885 36.2903 11.2538 34.966 11.2538Z" fill="#21A038" />
<path d="M53.5425 2.90625H49.4277V12.9255H51.5844V10.0872H53.5425C56.1678 10.0872 57.7918 8.70306 57.7918 6.49139C57.7918 4.27978 56.1678 2.90625 53.5425 2.90625ZM53.497 8.41861H51.5844V4.57487H53.497C54.8779 4.57487 55.64 5.25783 55.64 6.4975C55.64 7.73717 54.8779 8.41861 53.497 8.41861Z" fill="#21A038" />
<path d="M27.3245 10.5601C26.7674 10.8624 26.1431 11.0189 25.5096 11.0152C23.6135 11.0152 22.2379 9.65885 22.2379 7.79111C22.2379 5.92331 23.6135 4.56399 25.5096 4.56399C26.1934 4.55235 26.863 4.76011 27.4206 5.15695L28.9293 4.04368L28.8272 3.97104C27.9472 3.19577 26.7713 2.78516 25.4254 2.78516C23.9655 2.78516 22.6417 3.2773 21.6966 4.17264C21.2187 4.63364 20.8407 5.1884 20.5862 5.80229C20.3318 6.41618 20.2062 7.07601 20.2175 7.74067C20.2074 8.41209 20.3324 9.07866 20.585 9.70062C20.8376 10.3226 21.2126 10.8871 21.6877 11.3606C22.6373 12.2915 23.9581 12.8044 25.4076 12.8044C26.9222 12.8044 28.246 12.2752 29.1423 11.3117L27.7919 10.3037L27.3245 10.5601Z" fill="#21A038" />
<path d="M66.343 6.81124H63.7197V4.57475H69.3572V2.90234H61.5625V12.9216H66.0593C68.5834 12.9216 70.0322 11.7753 70.0322 9.77597C70.0381 7.86332 68.7262 6.81124 66.343 6.81124ZM65.9683 11.2538H63.7197V8.47755H65.9683C67.3336 8.47755 67.9734 8.94279 67.9734 9.86568C67.9734 10.7885 67.2983 11.2538 65.9683 11.2538Z" fill="#21A038" />
<path d="M94.5537 12.906H92.3672V2.88672H94.5537V7.09488H95.7438L98.9576 2.88672H101.436L97.6237 7.65301L102.05 12.906H99.1489L95.8955 8.96551H94.5537V12.906Z" fill="#21A038" />
<path d="M77.9767 11.0033H73.3513L72.5672 12.949H70.2402L74.5786 2.92969H76.905L81.1729 12.949H78.7609L77.9767 11.0033ZM77.2523 9.18793L75.6777 5.29664L74.0943 9.18793H77.2523Z" fill="#21A038" />
<path d="M84.1158 2.92969V7.11356H88.6405V2.92969H90.8951V12.949H88.6405V9.00102H84.1158V12.949H81.8613V2.92969H84.1158Z" fill="#21A038" />
<defs>
<linearGradient id="paint0_linear_10106_40646" x1="2.85289" y1="13.4246" x2="0.812493" y2="7.6046" gradientUnits="userSpaceOnUse">
<stop offset="0.14" stop-color="#F1E813" />
<stop offset="0.3" stop-color="#E6E418" />
<stop offset="0.58" stop-color="#C9DA26" />
<stop offset="0.89" stop-color="#A2CC39" />
</linearGradient>
<linearGradient id="paint1_linear_10106_40646" x1="3.00508" y1="2.66935" x2="8.15433" y2="0.7331" gradientUnits="userSpaceOnUse">
<stop offset="0.06" stop-color="#0FA7DF" />
<stop offset="0.54" stop-color="#0098F8" />
<stop offset="0.92" stop-color="#0290EA" />
</linearGradient>
<linearGradient id="paint2_linear_10106_40646" x1="7.55164" y1="14.8844" x2="13.3624" y2="13.5891" gradientUnits="userSpaceOnUse">
<stop offset="0.12" stop-color="#A2CC39" />
<stop offset="0.28" stop-color="#86C239" />
<stop offset="0.87" stop-color="#219F38" />
</linearGradient>
<linearGradient id="paint3_linear_10106_40646" x1="7.68316" y1="0.618817" x2="12.6561" y2="2.13308" gradientUnits="userSpaceOnUse">
<stop offset="0.06" stop-color="#0290EA" />
<stop offset="0.79" stop-color="#0C89CA" />
</linearGradient>
<linearGradient id="paint4_linear_10106_40646" x1="2.67036" y1="13.1415" x2="8.08835" y2="15.1395" gradientUnits="userSpaceOnUse">
<stop offset="0.13" stop-color="#F1E813" />
<stop offset="0.3" stop-color="#EAE616" />
<stop offset="0.53" stop-color="#D8DF1F" />
<stop offset="0.8" stop-color="#BAD52D" />
<stop offset="0.98" stop-color="#A2CC39" />
</linearGradient>
<linearGradient id="paint5_linear_10106_40646" x1="0.851274" y1="8.2224" x2="3.07002" y2="2.52729" gradientUnits="userSpaceOnUse">
<stop offset="0.07" stop-color="#A2CC39" />
<stop offset="0.26" stop-color="#81C45E" />
<stop offset="0.92" stop-color="#0FA7DF" />
</linearGradient>
</defs>
</svg>
