<svg width="58" height="30" viewBox="0 0 58 30" fill="none" xmlns="http://www.w3.org/2000/svg">
<path d="M51.5092 8.3833V15.5308H48.9569V10.517H46.4995V15.5308H43.9473V8.38281H51.5092V8.3833Z" fill="black" />
<path fill-rule="evenodd" clip-rule="evenodd" d="M38.7096 15.7892C40.9943 15.7892 42.6909 14.3883 42.6909 12.2647C42.6909 10.2092 41.4392 8.87462 39.3472 8.87462C38.3817 8.87462 37.585 9.21448 36.985 9.80088C37.1282 8.58885 38.1532 7.704 39.2817 7.704C39.5421 7.704 41.5028 7.69986 41.5028 7.69986L42.6115 5.57812C42.6115 5.57812 40.1499 5.63416 39.0056 5.63416C36.391 5.67972 34.625 8.05628 34.625 10.9428C34.625 14.3055 36.3474 15.7892 38.7096 15.7892ZM38.7235 10.7539C39.5718 10.7539 40.1599 11.3114 40.1599 12.2644C40.1599 13.1222 39.6373 13.829 38.7235 13.8309C37.8494 13.8309 37.2613 13.1761 37.2613 12.279C37.2613 11.3257 37.8494 10.7539 38.7235 10.7539Z" fill="black" />
<path d="M32.5452 13.1366C32.5452 13.1366 31.9425 13.484 31.0423 13.5498C30.0074 13.5805 29.0853 12.9269 29.0853 11.7655C29.0853 10.6326 29.899 9.98337 31.0162 9.98337C31.7013 9.98337 32.6076 10.4582 32.6076 10.4582C32.6076 10.4582 33.2708 9.24129 33.6143 8.63272C32.9852 8.15594 32.1474 7.89453 31.1729 7.89453C28.7135 7.89453 26.8086 9.49807 26.8086 11.7511C26.8086 14.0329 28.599 15.5992 31.1729 15.5519C31.8923 15.5251 32.8849 15.2725 33.4898 14.8839L32.5452 13.1366Z" fill="black" />
<path d="M0 6.53906L3.54036 12.8672V16.7272L0.00414163 23.043L0 6.53906Z" fill="#5B57A2" />
<path d="M13.5938 10.5631L16.9112 8.52977L23.7005 8.52344L13.5938 14.7149V10.5631Z" fill="#D90751" />
<path d="M13.5768 6.49809L13.5955 14.8764L10.0469 12.6959V0.171875L13.577 6.49809H13.5768Z" fill="#FAB718" />
<path d="M23.7023 8.52116L16.9127 8.52749L13.5768 6.49809L10.0469 0.171875L23.7021 8.52116H23.7023Z" fill="#ED6F26" />
<path d="M13.5955 23.0789V19.014L10.0469 16.875L10.0488 29.4115L13.5955 23.0789Z" fill="#63B22F" />
<path d="M16.9027 21.0633L3.54012 12.8672L0 6.53906L23.686 21.055L16.9025 21.0633H16.9027Z" fill="#1487C9" />
<path d="M10.0469 29.4064L13.5931 23.0738L16.9022 21.0591L23.6855 21.0508L10.0469 29.4064Z" fill="#017F36" />
<path d="M0.00390625 23.0426L10.0737 16.874L6.68826 14.7969L3.54013 16.7269L0.00390625 23.0426Z" fill="#984995" />
<path d="M29.0873 20.3449C29.0094 20.4443 28.9068 20.5193 28.7838 20.57C28.6575 20.6214 28.5225 20.6476 28.3862 20.647C28.2506 20.6488 28.1159 20.6262 27.9883 20.5802C27.8738 20.5386 27.7691 20.4738 27.6809 20.3897C27.5938 20.3055 27.5254 20.2039 27.4801 20.0915C27.4312 19.9684 27.4068 19.8369 27.4083 19.7044C27.4083 19.5729 27.4309 19.451 27.4779 19.3356C27.523 19.2198 27.5886 19.1207 27.6707 19.0374C27.7528 18.9523 27.8512 18.8875 27.9618 18.8369C28.0746 18.7881 28.1976 18.7618 28.3328 18.7618C28.4785 18.7618 28.6137 18.7801 28.7368 18.8164C28.8598 18.8529 28.9643 18.9139 29.0503 18.9991L28.9007 19.2525C28.8284 19.1869 28.7432 19.1371 28.6505 19.1063C28.5624 19.0779 28.4704 19.0636 28.3779 19.0639C28.296 19.0639 28.2181 19.08 28.1423 19.1105C28.0676 19.1405 27.9994 19.1846 27.9413 19.2403C27.8819 19.2976 27.8351 19.3666 27.8039 19.443C27.7691 19.5219 27.7528 19.6092 27.7528 19.7064C27.7528 19.8058 27.771 19.8949 27.8059 19.9719C27.8409 20.0511 27.888 20.1181 27.9474 20.1746C28.0069 20.2316 28.0765 20.274 28.1564 20.3025C28.2366 20.333 28.3206 20.3471 28.4108 20.3471C28.5214 20.3471 28.622 20.3247 28.708 20.282C28.7932 20.2409 28.8698 20.1838 28.9336 20.1139L29.0873 20.3449ZM29.5095 20.6044V18.8003H29.8336V20.1444L30.8872 18.8003H31.2113V20.6046H30.8872V19.2605L29.8336 20.6046H29.5095V20.6044ZM33.3576 20.3449C33.2779 20.4451 33.1733 20.5228 33.0543 20.57C32.928 20.6214 32.7928 20.6475 32.6564 20.647C32.521 20.6488 32.3863 20.6262 32.2588 20.5802C32.1442 20.5387 32.0395 20.4738 31.9511 20.3897C31.864 20.3055 31.7956 20.2039 31.7504 20.0915C31.7014 19.9684 31.677 19.8369 31.6785 19.7044C31.6785 19.5729 31.7012 19.451 31.7482 19.3356C31.7935 19.2198 31.8591 19.1207 31.9409 19.0374C32.023 18.9523 32.1214 18.8875 32.232 18.8369C32.3489 18.7854 32.4755 18.7598 32.6031 18.7618C32.7488 18.7618 32.884 18.7801 33.007 18.8164C33.1301 18.8529 33.2346 18.9139 33.3208 18.9991L33.171 19.2525C33.0988 19.1869 33.0136 19.1371 32.921 19.1063C32.8329 19.078 32.7409 19.0636 32.6484 19.0639C32.4856 19.0644 32.3291 19.1276 32.2116 19.2403C32.1527 19.298 32.106 19.3669 32.0742 19.443C32.0393 19.5219 32.023 19.6092 32.023 19.7064C32.023 19.8058 32.0415 19.8949 32.0764 19.9719C32.1112 20.0511 32.1582 20.1181 32.2177 20.1746C32.2771 20.2316 32.347 20.274 32.4269 20.3025C32.5069 20.3308 32.5909 20.3471 32.6811 20.3471C32.7919 20.3471 32.8903 20.3247 32.9783 20.282C33.0635 20.2409 33.1401 20.1838 33.2039 20.1139L33.3576 20.3449ZM33.5238 18.8003H35.1863V19.1207H34.518V20.6044H34.194V19.1207H33.5257V18.8003H33.5238Z" fill="black" />
<path fill-rule="evenodd" clip-rule="evenodd" d="M36.7003 20.5765C36.8234 20.538 36.9279 20.479 37.018 20.3981L36.9196 20.1467C36.8602 20.1996 36.7802 20.2442 36.684 20.2807C36.5875 20.3173 36.4789 20.3353 36.36 20.3353C36.1817 20.3353 36.034 20.2888 35.9171 20.1935C35.8004 20.098 35.7368 19.9645 35.7224 19.7939H37.1247C37.1391 19.7311 37.1452 19.6602 37.1452 19.5771C37.1452 19.4534 37.1225 19.342 37.0775 19.2407C37.0355 19.1423 36.9742 19.0533 36.8972 18.979C36.8191 18.9055 36.7271 18.8483 36.6265 18.8109C36.5213 18.7701 36.4093 18.7494 36.2964 18.75C36.1446 18.75 36.0114 18.7763 35.8947 18.8251C35.7843 18.8715 35.6846 18.9398 35.6013 19.0258C35.5206 19.1114 35.4585 19.2129 35.4191 19.3238C35.3758 19.4418 35.3543 19.5668 35.3555 19.6926C35.3555 19.8346 35.3801 19.9642 35.4252 20.08C35.4691 20.1921 35.5361 20.2936 35.6221 20.3779C35.7061 20.4607 35.8084 20.5238 35.9295 20.5684C36.0591 20.6144 36.1959 20.637 36.3334 20.6352C36.458 20.6344 36.5817 20.6147 36.7003 20.5767V20.5765ZM35.8803 19.1878C35.9807 19.0967 36.1139 19.0521 36.282 19.0521C36.4399 19.0521 36.5671 19.0947 36.6594 19.18C36.7517 19.265 36.8007 19.3827 36.809 19.5325H35.702C35.7176 19.3999 35.781 19.2774 35.8803 19.1881V19.1878Z" fill="black" />
<path d="M37.584 18.793H37.8793L38.5804 19.6871L39.2445 18.793H39.5315V20.5973H39.2077V19.2817L38.5763 20.1188H38.5638L37.908 19.2814V20.597H37.584V18.793Z" fill="black" />
<path fill-rule="evenodd" clip-rule="evenodd" d="M40.4144 18.8039C40.3161 18.8296 40.2222 18.8699 40.1357 18.9233L40.2217 19.1791C40.2955 19.1426 40.3694 19.1121 40.4432 19.0858C40.517 19.0592 40.6113 19.0471 40.7241 19.0471C40.8142 19.0471 40.8861 19.0614 40.9414 19.0897C40.9967 19.116 41.0376 19.1567 41.0664 19.2054C41.0951 19.2542 41.1136 19.3148 41.1239 19.3857C41.1341 19.4566 41.1382 19.5336 41.1382 19.6169C41.0719 19.5707 40.9964 19.5395 40.9168 19.5255C40.8398 19.5102 40.7616 19.5021 40.6832 19.5012C40.5867 19.5012 40.4965 19.5156 40.4103 19.5397C40.3243 19.564 40.2505 19.6006 40.191 19.6493C40.1303 19.698 40.0813 19.7595 40.0475 19.8296C40.0114 19.9063 39.9932 19.9902 39.9942 20.0749C39.9942 20.2513 40.0456 20.3892 40.1479 20.4867C40.2505 20.5839 40.3857 20.6323 40.5538 20.6323C40.7056 20.6323 40.8266 20.606 40.9187 20.5534C41.0111 20.5005 41.0849 20.4399 41.1382 20.3709V20.6041H41.4416V19.4973C41.4416 19.2619 41.3904 19.0797 41.2859 18.9518C41.1833 18.8242 41.0008 18.7593 40.7426 18.7593C40.6276 18.7593 40.5189 18.7754 40.4144 18.8039ZM40.956 20.2657C40.8822 20.3183 40.7857 20.3424 40.6668 20.3424C40.5623 20.3424 40.4802 20.3161 40.423 20.2654C40.3655 20.2128 40.3367 20.1439 40.3367 20.0586C40.3367 20.0082 40.3469 19.9655 40.3696 19.927C40.3923 19.8886 40.423 19.8581 40.4578 19.8337C40.4959 19.8083 40.5382 19.7897 40.5828 19.7789C40.63 19.7667 40.6771 19.7606 40.7263 19.7606C40.8863 19.7606 41.0235 19.7991 41.1363 19.8803V20.1093C41.0831 20.1688 41.0225 20.2213 40.956 20.2654V20.2657ZM44.3017 18.1632C44.3673 18.133 44.4286 18.0823 44.4861 18.0073L44.3098 17.7539C44.2647 17.8148 44.2135 17.8572 44.156 17.8796C44.0951 17.9034 44.0319 17.9211 43.9675 17.9322L43.9061 17.9432C43.8527 17.9525 43.7955 17.9627 43.7338 17.9729C43.635 17.9912 43.5386 18.0211 43.4468 18.0621C43.3011 18.1249 43.1845 18.21 43.0963 18.3174C43.0081 18.4248 42.9384 18.5464 42.8911 18.6804C42.8433 18.8162 42.811 18.9569 42.7949 19.0999C42.7783 19.2461 42.7703 19.3857 42.7703 19.5195C42.7703 19.6919 42.7927 19.8479 42.8378 19.9877C42.8831 20.1278 42.9464 20.2452 43.0305 20.3405C43.1145 20.4379 43.2152 20.511 43.334 20.5636C43.4529 20.6163 43.5862 20.6426 43.7358 20.6426C43.8732 20.6426 44.0004 20.6163 44.1151 20.5675C44.2257 20.5207 44.3261 20.4526 44.4104 20.367C44.4922 20.2837 44.558 20.1843 44.6031 20.073C44.6501 19.9614 44.6728 19.8418 44.6728 19.7161C44.6728 19.5804 44.6523 19.4568 44.6133 19.3472C44.5774 19.2427 44.5202 19.1468 44.4452 19.0656C44.3701 18.9857 44.2784 18.9234 44.1765 18.8829C44.0643 18.8387 43.9446 18.8167 43.824 18.8181C43.746 18.8181 43.6702 18.8283 43.5964 18.8485C43.5246 18.8688 43.4557 18.8981 43.3913 18.9357C43.3288 18.9715 43.2716 19.0158 43.2212 19.0673C43.172 19.1182 43.1311 19.175 43.1024 19.2398H43.0941C43.1004 19.1567 43.1106 19.0717 43.1289 18.9845C43.1474 18.8972 43.174 18.8139 43.2091 18.735C43.2439 18.6561 43.289 18.5849 43.3443 18.5201C43.4036 18.4547 43.4763 18.4028 43.5574 18.3681C43.6467 18.3256 43.7411 18.2949 43.8383 18.277L43.9027 18.2653C43.9667 18.2536 44.0279 18.2424 44.0864 18.2302C44.1643 18.2141 44.2359 18.1936 44.3017 18.1634V18.1632ZM43.1618 19.8966C43.1301 19.7942 43.1149 19.6875 43.1167 19.5804C43.1305 19.5189 43.1555 19.4605 43.1905 19.4081C43.2254 19.3533 43.2705 19.3048 43.3238 19.2619C43.4442 19.1676 43.5931 19.1169 43.746 19.1182C43.9368 19.1182 44.0803 19.1769 44.1806 19.2926C44.2813 19.4101 44.3305 19.556 44.3305 19.7324C44.3305 19.8196 44.3139 19.8988 44.2854 19.9716C44.2577 20.0435 44.2158 20.109 44.1623 20.1644C44.1088 20.2198 44.0447 20.2638 43.9738 20.2939C43.9 20.3263 43.8198 20.3427 43.7297 20.3427C43.6395 20.3427 43.5574 20.3244 43.4817 20.2879C43.4064 20.252 43.3398 20.2001 43.2868 20.1358C43.2312 20.0642 43.1889 19.9831 43.1618 19.8966ZM47.1575 18.7978H46.8335V20.6021H47.1575V18.7978ZM45.14 18.7978H45.4641V19.3392H45.7635C45.9048 19.3392 46.0195 19.3574 46.1119 19.3918C46.2042 19.4264 46.278 19.4729 46.3333 19.5297C46.3886 19.5865 46.4276 19.6535 46.4503 19.7282C46.4727 19.8033 46.4851 19.8803 46.4851 19.9614C46.4851 20.0425 46.4727 20.1198 46.4461 20.1967C46.4215 20.2737 46.3784 20.3405 46.3209 20.4014C46.2636 20.4623 46.1857 20.511 46.0872 20.5476C45.9888 20.5839 45.8699 20.6041 45.7264 20.6041H45.1381V18.7978H45.14ZM45.4641 19.641V20.302H45.6999C45.8619 20.302 45.9766 20.2737 46.0422 20.2167C46.108 20.16 46.1406 20.0791 46.1406 19.9716C46.1406 19.862 46.1058 19.7792 46.0402 19.7222C45.9725 19.6654 45.8597 19.6369 45.704 19.6369H45.4641V19.641Z" fill="black" />
<path d="M49.3002 20.3449C49.2223 20.4443 49.1197 20.5193 48.9967 20.57C48.8704 20.6214 48.7354 20.6475 48.5991 20.647C48.4635 20.6488 48.3288 20.6262 48.2012 20.5802C48.0867 20.5387 47.982 20.4738 47.8938 20.3897C47.8067 20.3055 47.7382 20.2039 47.6928 20.0915C47.644 19.9684 47.6197 19.8369 47.6212 19.7044C47.6212 19.5729 47.6436 19.451 47.6908 19.3356C47.7359 19.2198 47.8014 19.1207 47.8835 19.0374C47.9656 18.9523 48.0638 18.8875 48.1747 18.8369C48.2915 18.7854 48.4181 18.7598 48.5457 18.7618C48.6912 18.7618 48.8266 18.7801 48.9496 18.8164C49.0727 18.8529 49.1772 18.9139 49.2632 18.9991L49.1136 19.2525C49.0413 19.1869 48.956 19.1371 48.8634 19.1063C48.7753 19.0779 48.6833 19.0636 48.5908 19.0639C48.5089 19.0639 48.431 19.08 48.355 19.1105C48.2804 19.1405 48.2122 19.1846 48.1542 19.2403C48.0953 19.298 48.0485 19.3669 48.0168 19.443C47.982 19.5219 47.9656 19.6092 47.9656 19.7064C47.9656 19.8058 47.9839 19.8949 48.0188 19.9719C48.0536 20.0511 48.1009 20.1181 48.1603 20.1746C48.2197 20.2316 48.2894 20.274 48.3693 20.3025C48.4495 20.3308 48.5335 20.3471 48.6237 20.3471C48.7343 20.3471 48.8327 20.3247 48.9209 20.2821C49.0061 20.2409 49.0827 20.1838 49.1465 20.114L49.3002 20.3449ZM49.4661 18.8003H51.1289V19.1207H50.4604V20.6044H50.1366V19.1207H49.4683V18.8003H49.4661Z" fill="black" />
<path fill-rule="evenodd" clip-rule="evenodd" d="M51.8025 18.7908H51.4785V21.3976H51.8025V20.5118C51.8681 20.5544 51.946 20.5849 52.0362 20.6051C52.1263 20.6253 52.2206 20.6353 52.3171 20.6353C52.4606 20.6353 52.5897 20.609 52.7066 20.5605C52.8188 20.5125 52.9204 20.443 53.0058 20.3559C53.0899 20.2684 53.1534 20.1671 53.1985 20.0474C53.2436 19.9281 53.2662 19.8002 53.2662 19.6645C53.2662 19.5305 53.2458 19.4069 53.2068 19.2954C53.1701 19.1894 53.113 19.0916 53.0387 19.0076C52.9658 18.9257 52.8754 18.8613 52.7741 18.8191C52.6635 18.7715 52.544 18.748 52.4235 18.7501C52.2966 18.7501 52.1777 18.7745 52.0649 18.8232C51.9521 18.8719 51.8639 18.9304 51.8025 19.0035V18.7908ZM52.0281 19.1253C52.1205 19.0766 52.2208 19.0522 52.3295 19.0522C52.4238 19.0522 52.5078 19.0664 52.5838 19.0968C52.6577 19.1273 52.7191 19.1699 52.7705 19.2267C52.8216 19.2834 52.8606 19.3485 52.8852 19.4252C52.9118 19.5022 52.9242 19.5855 52.9242 19.6766C52.9242 19.7741 52.9076 19.8611 52.8791 19.9422C52.8522 20.0191 52.8096 20.0896 52.7539 20.149C52.6979 20.2078 52.6302 20.254 52.5551 20.2847C52.4714 20.3198 52.3813 20.337 52.2905 20.3354C52.2026 20.3354 52.1205 20.3254 52.0425 20.3052C51.9572 20.282 51.8762 20.2449 51.8028 20.1956V19.3015C51.86 19.2328 51.936 19.174 52.0281 19.1253ZM55.751 18.7906H55.427V20.5949H55.751V18.7906ZM53.7316 18.7906H54.0556V19.3319H54.3548C54.4963 19.3319 54.611 19.3502 54.7034 19.3845C54.7957 19.4191 54.8695 19.4657 54.9248 19.5224C54.9801 19.5792 55.0191 19.6462 55.0415 19.721C55.0642 19.796 55.0764 19.873 55.0764 19.9541C55.0764 20.0353 55.0642 20.1125 55.0376 20.1895C55.013 20.2665 54.9699 20.3332 54.9124 20.3941C54.8552 20.455 54.7772 20.5037 54.6788 20.5403C54.5804 20.5766 54.4615 20.5968 54.318 20.5968H53.7296V18.7906H53.7316ZM54.0578 19.6338V20.2947H54.2936C54.4554 20.2947 54.5704 20.2665 54.6359 20.2094C54.7014 20.1527 54.7343 20.0718 54.7343 19.9644C54.7343 19.8547 54.6995 19.7719 54.6339 19.7149C54.5662 19.6581 54.4534 19.6296 54.2977 19.6296H54.0578V19.6338Z" fill="black" />
<path d="M57.3071 19.6627L58 20.5973H57.6024L57.0672 19.8674L56.5239 20.5973H56.1467L56.8355 19.6788L56.1877 18.793H56.5855L57.0796 19.4741L57.5817 18.793H57.9591L57.3071 19.6627ZM28.8476 22.8272H27.8533V24.3313H27.5293V22.5273H29.1713V24.3313H28.8476V22.8272ZM31.0102 22.8474H30.3707L30.35 23.1514C30.3276 23.4089 30.2969 23.6158 30.2538 23.7736C30.2106 23.932 30.1573 24.0536 30.0959 24.1386C30.0345 24.2239 29.9626 24.2826 29.8805 24.3111C29.7958 24.3418 29.7063 24.3569 29.6162 24.3557L29.5916 24.0433C29.6264 24.0453 29.6674 24.0372 29.7124 24.017C29.7577 23.9968 29.8028 23.9522 29.8457 23.8855C29.8888 23.8163 29.9278 23.7191 29.9626 23.5934C29.9975 23.4657 30.0201 23.2996 30.0323 23.0905L30.0652 22.529H31.3342V24.3333H31.0102V22.8471V22.8474Z" fill="black" />
<path fill-rule="evenodd" clip-rule="evenodd" d="M32.2055 22.5329C32.1007 22.5611 32.0064 22.6016 31.9265 22.6522L32.0127 22.9078C32.0866 22.8713 32.1604 22.8408 32.234 22.8145C32.3078 22.7882 32.4023 22.776 32.5149 22.776C32.6052 22.776 32.6769 22.7901 32.7322 22.8184C32.7877 22.8449 32.8286 22.8854 32.8574 22.9341C32.8859 22.9828 32.9044 23.0437 32.9146 23.1144C32.9249 23.1855 32.929 23.2625 32.929 23.3456C32.8627 23.2995 32.7871 23.2684 32.7076 23.2545C32.6306 23.2392 32.5524 23.231 32.4739 23.2301C32.3777 23.2301 32.2873 23.2443 32.2013 23.2686C32.1151 23.293 32.0413 23.3295 31.9818 23.3782C31.9211 23.4269 31.8721 23.4885 31.8383 23.5585C31.8023 23.6352 31.7841 23.7191 31.7852 23.8039C31.7852 23.98 31.8364 24.1181 31.9389 24.2153C32.0413 24.3125 32.1767 24.3613 32.3448 24.3613C32.4966 24.3613 32.6174 24.335 32.7098 24.2821C32.8018 24.2295 32.8757 24.1686 32.929 24.0996V24.3328H33.2326V23.226C33.2326 22.9909 33.1812 22.8084 33.0767 22.6807C32.9741 22.5528 32.7916 22.4883 32.5334 22.4883C32.4226 22.4884 32.3123 22.5033 32.2055 22.5326V22.5329ZM32.7487 23.9941C32.6752 24.047 32.5787 24.0714 32.4598 24.0714C32.3531 24.0714 32.2732 24.045 32.2159 23.9941C32.1584 23.9415 32.1297 23.8726 32.1297 23.7875C32.1297 23.7369 32.1399 23.6942 32.1626 23.6557C32.185 23.6172 32.2159 23.5868 32.2508 23.5624C32.2856 23.5381 32.3285 23.5198 32.3757 23.5076C32.4226 23.4955 32.4708 23.4894 32.5192 23.4896C32.6791 23.4896 32.8165 23.5281 32.9293 23.609V23.838C32.876 23.8975 32.8154 23.95 32.7487 23.9941Z" fill="black" />
<path d="M33.5547 22.5312H35.2174V22.8514H34.5489V24.3353H34.2251V22.8516H33.5569V22.5312H33.5547Z" fill="black" />
<path fill-rule="evenodd" clip-rule="evenodd" d="M36.7279 24.3136C36.8509 24.2751 36.9555 24.2162 37.0456 24.1353L36.9472 23.8839C36.8877 23.9367 36.8078 23.9813 36.7113 24.0178C36.6151 24.0544 36.5065 24.0724 36.3876 24.0724C36.2092 24.0724 36.0616 24.0259 35.9447 23.9306C35.8277 23.8354 35.7644 23.7016 35.75 23.5311H37.1523C37.1664 23.4685 37.1728 23.3973 37.1728 23.3143C37.1728 23.1907 37.1501 23.0792 37.105 22.9778C37.0631 22.8794 37.0017 22.7905 36.9245 22.7164C36.8466 22.6427 36.7546 22.5855 36.6541 22.5481C36.5488 22.5072 36.4369 22.4866 36.324 22.4871C36.1722 22.4871 36.0389 22.5135 35.9222 22.5622C35.8119 22.6085 35.712 22.6768 35.6289 22.7629C35.5481 22.8486 35.486 22.95 35.4464 23.0609C35.4032 23.179 35.3817 23.304 35.3829 23.4297C35.3829 23.5718 35.4075 23.7014 35.4525 23.8171C35.4978 23.9326 35.5653 24.032 35.6494 24.1151C35.7334 24.1981 35.836 24.261 35.9571 24.3056C36.0866 24.3516 36.2233 24.3743 36.3608 24.3726C36.4818 24.3726 36.6049 24.3521 36.7279 24.3136ZM35.9059 22.923C36.0063 22.8319 36.1396 22.7873 36.3077 22.7873C36.4677 22.7873 36.5927 22.8319 36.685 22.915C36.7771 23.0002 36.8263 23.1177 36.8346 23.2677H35.7276C35.7432 23.135 35.8066 23.0124 35.9059 22.923ZM37.3306 22.5278H37.7407L38.3658 23.3976L37.6975 24.3319H37.2999L38.0009 23.3973L37.3306 22.5276V22.5278ZM38.4457 22.5278H38.7697V24.3319H38.4457V22.5278ZM39.9279 24.3319L39.2146 23.3973L39.8809 22.5276H39.4789L38.8496 23.3973L39.5262 24.3319H39.9279ZM41.4082 24.3136C41.5312 24.2751 41.6357 24.2162 41.7259 24.1353L41.6275 23.8839C41.568 23.9367 41.4881 23.9813 41.3919 24.0178C41.2954 24.0544 41.1867 24.0724 41.0679 24.0724C40.8895 24.0724 40.7419 24.0259 40.6249 23.9306C40.5082 23.8354 40.4447 23.7016 40.4303 23.5311H41.8326C41.847 23.4685 41.8531 23.3973 41.8531 23.3143C41.8531 23.1907 41.8306 23.0792 41.7853 22.9778C41.7434 22.8795 41.682 22.7906 41.605 22.7164C41.527 22.6427 41.435 22.5854 41.3344 22.5481C41.2291 22.5072 41.1172 22.4866 41.0043 22.4871C40.8527 22.4871 40.7195 22.5135 40.6025 22.5622C40.4922 22.6086 40.3925 22.6769 40.3094 22.7629C40.2285 22.8484 40.1664 22.9499 40.127 23.0609C40.0837 23.179 40.0621 23.304 40.0634 23.4297C40.0634 23.5718 40.088 23.7014 40.1331 23.8171C40.1781 23.9326 40.2459 24.032 40.3299 24.1151C40.414 24.1981 40.5163 24.261 40.6374 24.3056C40.767 24.3516 40.9037 24.3743 41.0413 24.3726C41.1659 24.3716 41.2896 24.3518 41.4082 24.3136ZM40.5862 22.923C40.6868 22.8319 40.8201 22.7873 40.9882 22.7873C41.1461 22.7873 41.273 22.8319 41.3653 22.915C41.4577 23.0002 41.5069 23.1177 41.5149 23.2677H40.4079C40.4235 23.135 40.4869 23.0124 40.5862 22.923ZM43.1674 21.9217C42.9767 21.9217 42.8721 21.8162 42.8558 21.6055H42.5503C42.5503 21.6864 42.5647 21.7594 42.5912 21.8284C42.618 21.8973 42.657 21.956 42.7082 22.0048C42.7593 22.0535 42.8251 22.092 42.9009 22.1222C42.9767 22.1527 43.0648 22.1668 43.1652 22.1668C43.2576 22.1668 43.3397 22.1527 43.4135 22.1222C43.4873 22.0939 43.5487 22.0535 43.602 22.0048C43.6532 21.956 43.6944 21.8973 43.7229 21.8284C43.7516 21.7594 43.766 21.6864 43.766 21.6055H43.4627C43.4483 21.8162 43.3477 21.9217 43.1674 21.9217ZM42.2918 22.5276V24.3319H42.6158L43.6695 22.9878V24.3319H43.9935V22.5276H43.6695L42.6158 23.8717V22.5276H42.2918Z" fill="black" />
</svg>
