<svg width="50" height="16" viewBox="0 0 50 16" fill="none" xmlns="http://www.w3.org/2000/svg">
<path d="M21.2954 15.7697H17.3145L19.8044 0.28125H23.7851L21.2954 15.7697Z" fill="#00579F" />
<path d="M35.7268 0.659404C34.9416 0.346017 33.6962 0 32.1562 0C28.225 0 25.4566 2.10895 25.4396 5.12412C25.407 7.3487 27.4217 8.58429 28.9285 9.32603C30.4687 10.084 30.9922 10.5787 30.9922 11.2543C30.9766 12.2919 29.7477 12.7702 28.6016 12.7702C27.0122 12.7702 26.1606 12.5236 24.8664 11.9463L24.3422 11.6989L23.7852 15.1757C24.7188 15.6036 26.439 15.9834 28.225 16C32.402 16 35.1214 13.9237 35.1536 10.7105C35.1695 8.94739 34.1057 7.59639 31.8121 6.49242C30.4197 5.78374 29.567 5.30589 29.567 4.58078C29.5833 3.9216 30.2882 3.24643 31.86 3.24643C33.1541 3.21336 34.105 3.52631 34.8253 3.83947L35.1854 4.00394L35.7268 0.659404Z" fill="#00579F" />
<path d="M41.0166 10.2827C41.3444 9.39288 42.6059 5.94914 42.6059 5.94914C42.5894 5.98221 42.9331 5.04293 43.1297 4.4663L43.4079 5.80088C43.4079 5.80088 44.1617 9.5083 44.3255 10.2827C43.7033 10.2827 41.8029 10.2827 41.0166 10.2827ZM45.9305 0.28125H42.8512C41.9017 0.28125 41.1803 0.56113 40.7706 1.56633L34.8574 15.7695H39.0345C39.0345 15.7695 39.7222 13.8578 39.87 13.4461C40.3282 13.4461 44.3916 13.4461 44.9811 13.4461C45.0954 13.9899 45.4561 15.7695 45.4561 15.7695H49.1421L45.9305 0.28125Z" fill="#00579F" />
<path d="M13.9887 0.28125L10.0901 10.8429L9.66404 8.70085C8.94326 6.22924 6.68276 3.54388 4.16016 2.20865L7.73116 15.7532H11.9409L18.1982 0.28125H13.9887Z" fill="#00579F" />
<path d="M6.47043 0.28125H0.0655247L0 0.594198C4.99622 1.8795 8.30513 4.97766 9.66461 8.70151L8.27226 1.58319C8.04303 0.593979 7.33858 0.313881 6.47043 0.28125Z" fill="#FAA61A" />
</svg>
