<svg width="67" height="13" viewBox="0 0 67 13" fill="none" xmlns="http://www.w3.org/2000/svg">
<path d="M41.8184 12.0434C41.8184 8.09135 41.8184 4.23217 41.8184 0.346461C42.0458 0.333199 42.2466 0.306675 42.4339 0.306675C44.3876 0.306675 46.3546 0.293414 48.3083 0.306675C51.1451 0.319937 52.8178 2.83968 51.667 5.3992C51.5064 5.75727 51.5733 5.92968 51.8409 6.18165C52.9114 7.21607 53.1389 8.47594 52.6037 9.82864C52.055 11.1946 50.9979 12.0036 49.4858 12.0301C46.9568 12.0699 44.4143 12.0434 41.8184 12.0434ZM46.9166 9.27165C47.492 9.27165 48.0808 9.29817 48.6562 9.27165C49.4189 9.23186 49.914 8.74118 49.8739 8.13113C49.8338 7.57414 49.2985 7.14976 48.5759 7.1365C47.773 7.12324 46.9702 7.12324 46.1673 7.1365C44.4679 7.17629 44.7087 6.77843 44.6953 8.66161C44.6953 8.70139 44.682 8.7677 44.6953 8.79422C44.8559 8.95337 45.0031 9.23186 45.1771 9.25839C45.7525 9.31143 46.3279 9.27165 46.9166 9.27165ZM44.6953 5.20028C45.913 5.20028 47.0237 5.21354 48.1343 5.18702C48.7365 5.17375 49.1513 4.72285 49.1647 4.17912C49.1647 3.60886 48.7365 3.15796 48.1076 3.13144C47.1307 3.10491 46.1539 3.10491 45.1771 3.1447C45.0165 3.1447 44.7355 3.38341 44.7221 3.52929C44.6552 4.05976 44.6953 4.59024 44.6953 5.20028Z" fill="#F04E53" />
<path d="M25.4273 12.0046C24.397 12.0046 23.4736 12.0046 22.5102 12.0046C23.0588 11.4211 23.5673 10.8907 24.0758 10.3602C24.0357 10.3204 23.9955 10.2673 23.9554 10.2276C23.8617 10.2939 23.7546 10.3337 23.6744 10.4132C21.8545 12.0975 19.7403 12.6147 17.3852 11.7792C15.1371 10.9835 13.8525 9.32576 13.4377 7.00495C12.9024 3.98126 15.1772 0.824952 18.2416 0.29448C22.082 -0.355348 25.3336 2.25723 25.4273 6.11641C25.4675 8.05263 25.4273 10.0021 25.4273 12.0046ZM19.4057 9.17988C21.0918 9.15336 22.5236 7.74761 22.4968 6.14293C22.47 4.53825 21.065 3.15903 19.4325 3.17229C17.7598 3.17229 16.3949 4.56478 16.4217 6.23576C16.4485 7.8537 17.8134 9.19314 19.4057 9.17988Z" fill="#F04E53" />
<path d="M66.1886 12.0026C65.1983 12.0026 64.2884 12.0026 63.2982 12.0026C63.8468 11.4323 64.3286 10.9284 64.8103 10.4112C64.7701 10.3581 64.7166 10.3184 64.6765 10.2653C64.5025 10.3979 64.3286 10.5438 64.1546 10.6764C60.7691 13.5012 55.7511 12.0557 54.4398 7.86492C53.3425 4.33729 55.8181 0.703554 59.4979 0.252653C63.1644 -0.198248 66.2956 2.75913 66.2287 6.2072C66.2019 7.93123 66.2287 9.65527 66.2287 11.3793C66.2421 11.5782 66.2153 11.7639 66.1886 12.0026ZM63.2313 6.19394C63.2313 4.49643 61.8798 3.14372 60.1937 3.17025C58.5746 3.18351 57.1963 4.53621 57.1963 6.11437C57.1829 7.77209 58.5345 9.17784 60.1402 9.17784C61.853 9.17784 63.2313 7.85166 63.2313 6.19394Z" fill="#F04E53" />
<path d="M11.9797 0.296875C12.2608 2.65747 11.6185 4.5937 9.77184 6.18511C11.5649 7.72348 12.2608 9.6597 11.9931 12.0468C11.1367 12.0468 10.2803 12.0601 9.42392 12.0203C9.30349 12.0203 9.12954 11.7418 9.10277 11.5694C9.03587 11.1318 9.06263 10.6809 9.02249 10.2432C8.86191 8.70485 7.48364 7.49803 5.98493 7.56434C4.31227 7.63065 3.06781 8.90378 3.05443 10.5615C3.05443 11.0257 3.05443 11.4766 3.05443 12.0468C2.51918 12.0468 2.03745 12.0468 1.55573 12.0468C1.08738 12.0468 0.619038 12.0468 0.11055 12.0468C-0.264126 9.69949 0.445082 7.76327 2.26494 6.18511C0.458463 4.62022 -0.237364 2.69726 0.0704057 0.349922C1.02048 0.349922 1.95717 0.349922 2.94738 0.349922C2.97414 0.933441 2.98753 1.49044 3.02767 2.06069C3.13472 3.59906 4.44609 4.79262 5.99831 4.79262C7.59069 4.79262 8.91543 3.54601 8.99572 1.99438C8.99572 1.96786 8.99572 1.9546 8.99572 1.92808C9.08939 0.296875 9.08939 0.296875 10.6951 0.296875C11.0966 0.296875 11.498 0.296875 11.9797 0.296875Z" fill="#F04E53" />
<path d="M30.6611 12.0181C29.5906 12.0181 28.6405 12.0181 27.5566 12.0181C27.6102 10.8776 27.6235 9.75035 27.744 8.64962C27.9715 6.47469 28.48 4.37932 29.7244 2.53593C30.4604 1.44846 31.3971 0.586448 32.7486 0.281426C34.2071 -0.0501184 35.4248 0.387521 36.482 1.36889C37.5792 2.39005 38.2215 3.68971 38.7033 5.09546C39.4526 7.32344 39.6533 9.61773 39.573 12.0049C38.5962 12.0049 37.6461 12.0049 36.5756 12.0049C36.5756 11.5009 36.5756 10.997 36.5756 10.493C36.589 8.70267 36.3348 6.96537 35.5988 5.32091C35.3178 4.71087 34.9164 4.12735 34.4614 3.6234C33.9663 3.0664 33.2972 3.10619 32.7486 3.61014C31.8788 4.40584 31.4506 5.45353 31.1696 6.55426C30.9421 7.42953 30.7682 8.31807 30.6879 9.21988C30.5942 10.1217 30.6611 11.0235 30.6611 12.0181Z" fill="#F04E53" />
</svg>
