<svg viewBox="0 0 40 40" fill="none" xmlns="http://www.w3.org/2000/svg">
<path class="fill" d="M19.9999 39.9998C31.0456 39.9998 39.9998 31.0456 39.9998 19.9999C39.9998 8.95427 31.0456 0 19.9999 0C8.95427 0 0 8.95427 0 19.9999C0 31.0456 8.95427 39.9998 19.9999 39.9998Z" fill="#003C7E"></path>
<path class="stroke" d="M22.5734 25.5209C23.8545 25.2291 25.0881 24.7218 26.2234 24.0083C27.0828 23.4662 27.3428 22.3309 26.8005 21.4683C26.2583 20.6058 25.123 20.3458 24.2605 20.888C21.6856 22.5083 18.3718 22.5052 15.7967 20.888C14.9341 20.3458 13.7989 20.6058 13.2567 21.4683C12.7145 22.3278 12.9745 23.4662 13.8338 24.0083C14.9691 24.7218 16.2027 25.2292 17.4838 25.5209L13.9734 29.0345C13.2536 29.7543 13.2536 30.9181 13.9734 31.6379C14.3349 31.9963 14.8043 32.177 15.2736 32.177C15.7461 32.177 16.2154 31.9963 16.577 31.6379L20.0303 28.1845L23.4838 31.6379C24.2036 32.3578 25.3674 32.3578 26.0872 31.6379C26.807 30.9181 26.807 29.751 26.0872 29.0345L22.5734 25.5209ZM20.0301 11.5076C21.4667 11.5076 22.6336 12.6746 22.6336 14.1111C22.6336 15.5444 21.4667 16.7114 20.0301 16.7114C18.5969 16.7114 17.4267 15.5445 17.4267 14.1111C17.4267 12.6746 18.5969 11.5076 20.0301 11.5076ZM20.0301 20.3931C23.4963 20.3931 26.3154 17.574 26.3154 14.1111C26.3154 10.6418 23.4963 7.82275 20.0301 7.82275C16.5641 7.82275 13.7451 10.6418 13.7451 14.108C13.7451 17.5742 16.5641 20.3931 20.0301 20.3931Z" fill="white"></path>
</svg>