<svg viewBox="0 0 30 30" fill="none" xmlns="http://www.w3.org/2000/svg">    
<path fill-rule="evenodd" clip-rule="evenodd" d="M14.758 29.5161C22.9087 29.5161 29.5161 22.9087 29.5161 14.758C29.5161 6.6074 22.9087 0 14.758 0C6.6074 0 0 6.6074 0 14.758C0 22.9087 6.6074 29.5161 14.758 29.5161Z" fill="#003C7E"></path>
<g clip-path="url(#tiktok_clip0)">
<path d="M19.7724 8.13975V9.97499C19.7724 9.97499 18.9941 9.94092 18.4176 9.77718C17.6131 9.54817 17.0958 9.19692 17.0958 9.19692C17.0958 9.19692 16.7388 8.94644 16.7099 8.92869V13.7671C16.7099 14.0365 16.6439 14.7095 16.4426 15.2703C16.1797 16.0046 15.7741 16.4864 15.6995 16.5848C15.6995 16.5848 15.206 17.2361 14.336 17.6746C13.5518 18.0703 12.863 18.0602 12.6569 18.0703C12.6569 18.0703 11.4665 18.1229 10.3949 17.3452L10.3896 17.3409C10.2764 17.2185 10.1699 17.0893 10.0706 16.9538C9.72863 16.4881 9.51901 15.9373 9.46634 15.7801C9.46625 15.7795 9.46625 15.7788 9.46634 15.7781C9.38159 15.505 9.20352 14.8492 9.22785 14.214C9.2709 13.0933 9.62382 12.4054 9.71714 12.233C9.96427 11.7631 10.2857 11.3426 10.6671 10.9904C11.0037 10.6864 11.3852 10.4445 11.7959 10.2747C12.24 10.0753 12.7155 9.96844 13.197 9.95982V11.8177C13.197 11.8177 12.3162 11.5056 11.6115 12.0581C11.1187 12.4669 10.8572 12.8657 10.7802 13.5779C10.777 14.1021 10.897 14.8438 11.5556 15.3384C11.6324 15.3928 11.7078 15.4411 11.7818 15.4833C11.8968 15.6503 12.0368 15.7959 12.1962 15.9141C12.8395 16.369 13.3785 16.4008 14.0678 16.1053C14.5274 15.9078 14.8734 15.4627 15.0338 14.9694C15.1346 14.6614 15.1333 14.3514 15.1333 14.0308V4.9104H16.7375C16.8038 5.3315 16.9872 5.93093 17.4722 6.52464C17.6668 6.74882 17.8859 6.94701 18.1249 7.11492C18.1954 7.19651 18.5564 7.59985 19.0197 7.84747C19.2593 7.97547 19.5119 8.07354 19.7724 8.13975Z" fill="white"></path>
<path d="M8.82812 15.2095V15.2109L8.8677 15.3314C8.86315 15.3174 8.84844 15.2747 8.82812 15.2095Z" fill="white"></path>
<path d="M11.7961 10.2746C11.3853 10.4444 11.0038 10.6862 10.6673 10.9902C10.2857 11.3433 9.96439 11.7646 9.71757 12.2355C9.62426 12.4072 9.27133 13.0957 9.22828 14.2164C9.20395 14.8516 9.38202 15.5075 9.46677 15.7806C9.46668 15.7812 9.46668 15.7819 9.46677 15.7826C9.52025 15.9383 9.72906 16.4891 10.071 16.9563C10.1704 17.0917 10.2769 17.2209 10.39 17.3433C10.0275 17.0749 9.70421 16.7503 9.43068 16.3803C9.09165 15.9185 8.88257 15.3735 8.82803 15.2126C8.82796 15.2115 8.82796 15.2103 8.82803 15.2092V15.2072C8.743 14.9344 8.5644 14.2782 8.58927 13.6422C8.63231 12.5214 8.98524 11.8336 9.07855 11.6612C9.3253 11.1903 9.64666 10.769 10.0283 10.416C10.3648 10.1119 10.7463 9.87002 11.1571 9.70031C11.4133 9.58648 11.6803 9.5025 11.9533 9.44983C12.3648 9.37293 12.785 9.36626 13.1985 9.43008V9.95967C12.7165 9.96811 12.2406 10.075 11.7961 10.2746Z" fill="white"></path>
<path d="M16.74 4.91044H15.1358V14.0311C15.1358 14.3517 15.1358 14.6609 15.0363 14.9698C14.8743 15.4627 14.5296 15.9078 14.0703 16.1054C13.3807 16.4019 12.8417 16.369 12.1987 15.9141C12.0391 15.7965 11.8987 15.6514 11.7832 15.4847C12.331 15.7976 12.8214 15.7922 13.4289 15.5311C13.8879 15.3336 14.2331 14.8885 14.3946 14.3952C14.4957 14.0872 14.4943 13.7772 14.4943 13.4569V4.33447H16.7095C16.7095 4.33447 16.6846 4.56119 16.74 4.91044ZM19.7736 7.63224V8.13978C19.5135 8.07347 19.2614 7.9754 19.0223 7.84751C18.5589 7.59989 18.1979 7.19654 18.1274 7.11496C18.2093 7.17253 18.2943 7.22491 18.3819 7.27183C18.9452 7.57298 19.5 7.66287 19.7736 7.63224Z" fill="white"></path>
<path d="M16.7944 22.2055C16.7943 22.2707 16.8033 22.3357 16.8212 22.3981C16.822 22.4025 16.8233 22.4068 16.8249 22.411C16.8676 22.5587 16.9534 22.6878 17.0696 22.7795C17.1859 22.8712 17.3265 22.9206 17.4709 22.9205V23.6531C17.1377 23.6531 16.8992 23.6657 16.5351 23.4358C16.1223 23.1736 15.8896 22.6941 15.8896 22.1963C15.8896 21.6827 16.1501 21.1683 16.5915 20.9204C16.9123 20.7406 17.1554 20.7395 17.4717 20.7395V21.4718C17.2922 21.4718 17.1201 21.5481 16.9932 21.684C16.8663 21.8198 16.795 22.0041 16.795 22.1963L16.7944 22.2055Z" fill="white"></path>
<path d="M18.153 22.2055C18.153 22.2707 18.144 22.3357 18.1263 22.3981C18.1263 22.4024 18.1239 22.4067 18.1225 22.411C18.0797 22.5586 17.994 22.6877 17.8777 22.7794C17.7615 22.8711 17.6209 22.9205 17.4766 22.9205V23.6531C17.8094 23.6531 18.0482 23.6657 18.411 23.4358C18.8252 23.1736 19.0583 22.6941 19.0583 22.1963C19.0583 21.6827 18.7979 21.1683 18.3565 20.9204C18.0356 20.7406 17.7926 20.7395 17.4766 20.7395V21.4718C17.656 21.4718 17.828 21.5482 17.9549 21.6841C18.0818 21.8199 18.153 22.0042 18.153 22.1963V22.2055Z" fill="white"></path>
<path d="M7 20.0752H9.50553L9.27398 20.8132H8.61732V23.6377H7.81174V20.8132H7V20.0752ZM13.6401 20.0752V20.8132H14.4519V23.6377H15.2585V20.8132H15.9141L16.1457 20.0752H13.6401ZM10.0507 20.9162C10.1279 20.9162 10.2034 20.8916 10.2675 20.8456C10.3317 20.7997 10.3817 20.7344 10.4112 20.658C10.4407 20.5816 10.4483 20.4975 10.4332 20.4165C10.4181 20.3354 10.3809 20.261 10.3263 20.2026C10.2716 20.1441 10.2021 20.1044 10.1263 20.0883C10.0506 20.0723 9.9721 20.0806 9.90079 20.1123C9.82949 20.144 9.76855 20.1976 9.7257 20.2663C9.68286 20.3351 9.66001 20.4159 9.66007 20.4986C9.66007 20.5535 9.67017 20.6078 9.68981 20.6585C9.70945 20.7093 9.73823 20.7553 9.77451 20.7941C9.81079 20.8329 9.85386 20.8637 9.90125 20.8846C9.94864 20.9056 9.99942 20.9163 10.0507 20.9162ZM9.66007 23.6377H10.4509V21.2117H9.66007V23.6377ZM13.2963 20.8951H12.3712L11.5739 21.7487V20.0781H10.7881L10.7857 23.6377H11.579V22.7103L11.8258 22.4695L12.5958 23.6366H13.4439L12.3284 21.9299L13.2963 20.8951ZM20.8835 21.9305L21.8505 20.8951H20.9257L20.1281 21.7487V20.0781H19.3426L19.3389 23.6377H20.1324V22.7103L20.3816 22.4695L21.1516 23.6366H22L20.8835 21.9305ZM18.8498 22.1958C18.8498 23.0002 18.2325 23.6526 17.471 23.6526C16.7095 23.6526 16.0922 23.0002 16.0922 22.1958C16.0922 21.3914 16.7095 20.739 17.471 20.739C18.2325 20.739 18.8498 21.3917 18.8498 22.1964V22.1958ZM18.1475 22.1958C18.1475 22.0526 18.1078 21.9126 18.0335 21.7935C17.9591 21.6744 17.8535 21.5815 17.7299 21.5267C17.6063 21.4719 17.4703 21.4576 17.339 21.4855C17.2078 21.5135 17.0873 21.5824 16.9927 21.6837C16.8981 21.785 16.8337 21.9141 16.8076 22.0545C16.7815 22.195 16.7949 22.3407 16.8461 22.473C16.8973 22.6053 16.984 22.7184 17.0952 22.798C17.2064 22.8776 17.3372 22.9201 17.471 22.9201C17.6503 22.9201 17.8223 22.8439 17.9491 22.7082C18.076 22.5725 18.1473 22.3884 18.1475 22.1964V22.1958Z" fill="white"></path>
</g>
</svg>