<svg viewBox="0 0 40 40" fill="none" xmlns="http://www.w3.org/2000/svg">
<path d="M19.9999 39.9998C31.0456 39.9998 39.9998 31.0456 39.9998 19.9999C39.9998 8.95427 31.0456 0 19.9999 0C8.95427 0 0 8.95427 0 19.9999C0 31.0456 8.95427 39.9998 19.9999 39.9998Z" fill="#003C7E"></path>
<path fill-rule="evenodd" clip-rule="evenodd" d="M19.245 28.771H20.8148C20.8148 28.771 21.2889 28.7189 21.531 28.4579C21.7538 28.2184 21.7467 27.7684 21.7467 27.7684C21.7467 27.7684 21.716 25.6621 22.6936 25.352C23.6573 25.0464 24.8947 27.3877 26.2064 28.2879C27.1982 28.9692 27.9519 28.8198 27.9519 28.8198L31.4589 28.771C31.4589 28.771 33.2936 28.6579 32.4237 27.2155C32.3524 27.0975 31.9171 26.1484 29.8161 24.1983C27.6171 22.1572 27.9116 22.4873 30.5605 18.9567C32.1738 16.8066 32.8187 15.4939 32.6173 14.9317C32.4251 14.3962 31.2386 14.5377 31.2386 14.5377L27.2898 14.5623C27.2898 14.5623 26.9971 14.5224 26.78 14.6521C26.5679 14.7794 26.4313 15.0761 26.4313 15.0761C26.4313 15.0761 25.8064 16.7399 24.9728 18.1549C23.2145 21.1408 22.5114 21.2984 22.2241 21.113C21.5556 20.6809 21.7224 19.3771 21.7224 18.4508C21.7224 15.5573 22.1613 14.3509 20.8679 14.0386C20.4386 13.9348 20.1228 13.8664 19.025 13.8553C17.6161 13.8407 16.4235 13.8596 15.7483 14.1905C15.2991 14.4104 14.9525 14.9006 15.1636 14.9288C15.4246 14.9637 16.0157 15.0882 16.329 15.5149C16.7337 16.0654 16.7194 17.3018 16.7194 17.3018C16.7194 17.3018 16.9519 20.708 16.1765 21.1311C15.6442 21.4213 14.914 20.8288 13.3464 18.12C12.5432 16.7324 11.9368 15.1987 11.9368 15.1987C11.9368 15.1987 11.8198 14.9121 11.6113 14.7587C11.3581 14.573 11.0045 14.5138 11.0045 14.5138L7.25211 14.5384C7.25211 14.5384 6.68881 14.5541 6.48203 14.799C6.29807 15.0169 6.46741 15.4675 6.46741 15.4675C6.46741 15.4675 9.40512 22.3405 12.7314 25.804C15.7814 28.9795 19.245 28.771 19.245 28.771Z" fill="white"></path>
</svg>