<svg viewBox="0 0 40 40" fill="none" xmlns="http://www.w3.org/2000/svg">    
<path class="fill" fill-rule="evenodd" clip-rule="evenodd" d="M19.9999 39.9998C31.0456 39.9998 39.9998 31.0456 39.9998 19.9999C39.9998 8.95427 31.0456 0 19.9999 0C8.95427 0 0 8.95427 0 19.9999C0 31.0456 8.95427 39.9998 19.9999 39.9998Z" fill="#003C7E"></path>
<path class="stroke" fill-rule="evenodd" clip-rule="evenodd" d="M27.811 19.232H12.1887C9.70508 19.232 7.69232 21.0646 7.69232 23.5328V27.8391C7.69232 30.3071 9.70508 32.3089 12.1887 32.3089H27.811C30.294 32.3089 32.3076 30.3073 32.3076 27.8391V23.5669C32.3076 21.0986 30.294 19.232 27.811 19.232ZM15.2522 22.7345H13.7459V29.6958H12.2897V22.7345H10.7837V21.5498H15.2522V22.7345ZM19.1108 29.9932H17.8191V29.3346C17.5792 29.5783 17.3323 29.764 17.0733 29.8897C16.8154 30.0204 16.5657 30.0822 16.3229 30.0822C16.023 30.0822 15.8005 29.9932 15.6473 29.8131C15.4976 29.6332 15.4205 29.3673 15.4205 29.0077V23.9831H16.7122V28.5938C16.7122 28.7359 16.7403 28.8386 16.7922 28.9012C16.8482 28.967 16.9367 28.9968 17.0579 28.9968C17.151 28.9968 17.2726 28.9554 17.4176 28.8711C17.5644 28.7861 17.697 28.6786 17.8185 28.5482V23.9831H19.1102L19.1108 29.9932ZM24.5232 28.5872C24.5232 29.0116 24.4223 29.3377 24.2195 29.5656C24.0182 29.793 23.7241 30.0703 23.3417 30.0703C23.0873 30.0703 22.4997 30.0278 22.303 29.9396C22.1055 29.8527 21.9192 29.7183 21.7507 29.5326V29.9929H20.4445V21.6819H21.7507V24.4705C21.9256 24.2889 22.1104 24.1486 22.3039 24.0538C22.5014 23.9572 23.0621 23.9107 23.2628 23.9107C23.6721 23.9107 23.9842 23.8721 24.1995 24.1286C24.4159 24.385 24.5229 24.7602 24.5229 25.2522L24.5232 28.5872ZM29.2215 27.0337H26.7504V28.166C26.7504 28.4821 26.7916 28.7016 26.8763 28.8244C26.9627 28.9474 27.1083 29.0071 27.3143 29.0071C27.5289 29.0071 27.6783 28.9551 27.7639 28.8513C27.8477 28.7467 27.8924 28.5196 27.8924 28.1658V27.8922H29.2218V28.2006C29.2218 28.8165 29.0611 29.2807 28.7345 29.5939C28.4125 29.9034 27.9289 30.0582 27.2847 30.0582C26.7057 30.0582 26.2494 29.8939 25.9176 29.563C25.5869 29.2353 25.4184 28.7798 25.4184 28.2006V25.501C25.4184 24.9815 25.6017 24.5543 25.968 24.2265C26.3338 23.8988 26.8026 23.7353 27.3821 23.7353C27.9739 23.7353 28.4284 23.8872 28.7461 24.1909C29.0634 24.4954 29.2221 24.9316 29.2221 25.5012L29.2215 27.0337ZM27.3264 24.7864C27.1199 24.7864 26.974 24.8405 26.8838 24.9527C26.793 25.0578 26.7504 25.239 26.7504 25.4912V26.0986H27.8924V25.4912C27.8924 25.239 27.8463 25.0578 27.756 24.9527C27.6684 24.8405 27.5228 24.7864 27.3264 24.7864ZM22.2914 24.8651C22.1994 24.8651 22.1072 24.8833 22.0173 24.9232C21.9274 24.9617 21.8389 25.0248 21.751 25.107V28.8511C21.8548 28.9477 21.9578 29.0222 22.0573 29.065C22.1571 29.1064 22.2595 29.1297 22.3688 29.1297C22.5278 29.1297 23.0058 29.0871 23.0804 29.0011C23.1538 28.916 23.1921 28.7798 23.1921 28.5875V25.483C23.1921 25.2791 23.148 25.126 23.0563 25.0209C22.9623 24.9174 22.4651 24.8651 22.2914 24.8651ZM23.9138 17.7391C24.1769 17.7391 24.4478 17.6634 24.7268 17.5175C25.0081 17.3697 25.2773 17.1533 25.5335 16.8709V17.6377H26.9364V10.7104H25.5335V15.9692C25.4037 16.1198 25.2589 16.2433 25.1023 16.3417C24.9441 16.439 24.8132 16.487 24.7103 16.487C24.5789 16.487 24.4828 16.4506 24.4257 16.3759C24.367 16.303 24.3349 16.1847 24.3349 16.022V10.7104H22.9349V16.5003C22.9349 16.9132 23.0177 17.2218 23.1804 17.4263C23.3454 17.6338 23.5878 17.7391 23.9138 17.7391ZM19.7876 17.8132C20.4245 17.8132 20.9244 17.6441 21.2893 17.3072C21.6511 16.9681 21.8325 16.5058 21.8325 15.9128V12.3334C21.8325 11.8064 21.6469 11.372 21.2787 11.0373C20.9065 10.7035 20.4315 10.5355 19.8511 10.5355C19.2142 10.5355 18.7059 10.6944 18.329 11.0122C17.9521 11.33 17.7637 11.7558 17.7637 12.2944V15.8854C17.7637 16.4746 17.9476 16.9408 18.315 17.2901C18.683 17.638 19.1739 17.8132 19.7876 17.8132ZM19.2061 12.2413C19.2061 12.0905 19.2598 11.9691 19.3654 11.8741C19.4736 11.781 19.612 11.7354 19.7829 11.7354C19.9688 11.7354 20.1187 11.781 20.233 11.8741C20.3468 11.9691 20.4038 12.0905 20.4038 12.2413V16.0156C20.4038 16.2007 20.3476 16.3475 20.2352 16.4539C20.1231 16.5603 19.9727 16.6125 19.7826 16.6125C19.5975 16.6125 19.4543 16.5619 19.3551 16.4558C19.2558 16.3516 19.2058 16.206 19.2058 16.0156L19.2061 12.2413ZM14.2341 17.638H15.8124V13.1895L17.6493 7.6936H16.0453L15.0684 11.448H14.9692L13.9442 7.6936H12.3542L14.2339 13.3644L14.2341 17.638Z" fill="#fff"></path>
</svg>